<?xml version="1.0" encoding="utf-8"?>
<!-- Generator: Adobe Illustrator 27.0.0, SVG Export Plug-In . SVG Version: 6.00 Build 0)  -->
<svg version="1.1" id="Layer_1" xmlns="http://www.w3.org/2000/svg" xmlns:xlink="http://www.w3.org/1999/xlink" x="0px" y="0px"
	 viewBox="0 0 1200 1200" style="enable-background:new 0 0 1200 1200;" xml:space="preserve">
<style type="text/css">
	.st0{fill:none;stroke:#FF0000;stroke-miterlimit:10;}
	.st1{fill:#FFFFFF;}
</style>
<g>
	<path d="M855,629v77.3h52c16,0,29,13,29,29c0,16-13,29-29,29h-52.7c-5.5,47.1-42.8,84.4-89.9,89.9V907c0,8-3.2,15.3-8.5,20.5
		c-5.2,5.2-12.5,8.5-20.5,8.5c-16,0-29-13-29-29v-52H629v52c0,8-3.2,15.3-8.5,20.5c-5.2,5.2-12.5,8.5-20.5,8.5c-16,0-29-13-29-29
		v-52h-77.3v52c0,8-3.2,15.3-8.5,20.5c-5.2,5.2-12.5,8.5-20.5,8.5c-16,0-29-13-29-29v-52.7c-47.1-5.5-84.4-42.8-89.9-89.9H293
		c-16,0-29-13-29-29c0-16,13-29,29-29h52V629h-52c-16,0-29-13-29-29c0-16,13-29,29-29h52v-77.3h-52c-16,0-29-13-29-29
		c0-16,13-29,29-29h52.7c5.5-47.1,42.8-84.4,89.9-89.9V293c0-8,3.2-15.3,8.5-20.5c5.2-5.3,12.5-8.5,20.5-8.5c16,0,29,13,29,29v52
		H571v-52c0-8,3.2-15.3,8.5-20.5c5.2-5.3,12.5-8.5,20.5-8.5c16,0,29,13,29,29v52h77.3v-52c0-8,3.2-15.3,8.5-20.5
		c5.2-5.3,12.5-8.5,20.5-8.5c16,0,29,13,29,29v52.7c47.1,5.5,84.4,42.9,89.9,89.9H907c16,0,29,13,29,29c0,16-13,29-29,29h-52V571h52
		c16,0,29,13,29,29c0,16-13,29-29,29H855z"/>
</g>
<g>
	<path class="st1" d="M530.2,578.2c0-7.3-5.8-13.1-13.1-13.1c-7.3,0-13.1,5.8-13.1,13.1V600c0,48.6,36.1,88.7,82.9,95.1v18.3h-26.2
		c-7.3,0-13.1,5.8-13.1,13.1c0,7.3,5.8,13.1,13.1,13.1H600h39.3c7.3,0,13.1-5.8,13.1-13.1c0-7.3-5.8-13.1-13.1-13.1h-26.2v-18.3
		c46.8-6.4,82.9-46.5,82.9-95.1v-21.8c0-7.3-5.8-13.1-13.1-13.1c-7.3,0-13.1,5.8-13.1,13.1V600c0,38.6-31.3,69.8-69.8,69.8
		s-69.8-31.3-69.8-69.8V578.2z"/>
	<path class="st1" d="M600,460.4c-28.9,0-52.4,23.5-52.4,52.4V600c0,28.9,23.5,52.4,52.4,52.4s52.4-23.5,52.4-52.4v-87.3
		C652.4,483.8,628.9,460.4,600,460.4z"/>
</g>
</svg>
