<?xml version="1.0" encoding="utf-8"?>
<!-- Generator: Adobe Illustrator 27.0.0, SVG Export Plug-In . SVG Version: 6.00 Build 0)  -->
<svg version="1.1" id="Layer_1" xmlns="http://www.w3.org/2000/svg" xmlns:xlink="http://www.w3.org/1999/xlink" x="0px" y="0px"
	 viewBox="0 0 1200 1200" style="enable-background:new 0 0 1200 1200;" xml:space="preserve">
<style type="text/css">
	.st0{fill:none;stroke:#FF0000;stroke-miterlimit:10;}
	.st1{fill:#FFFFFF;}
</style>
<g>
	<g>
		<path d="M1032,853.5c0,2.5-0.5,5-1.5,7.5c-3,7.3-10.1,12.1-18,12.1c-35,0-70.2-10.8-99.4-23.5c-28-12.2-51.7-26.7-66.2-37.3
			c-38.8,14-81.7,21.8-126.9,21.8c-27.9,0-54.9-3-80.7-8.6c27.8-12.3,53.6-28,76.7-46.8c27.9-22.7,50.6-48.8,67.4-77.8
			c84.8-37.2,144.1-122,144.1-220.6c0-9.7-6.5-18.2-15.9-20.7l-47.3-12.9c-10.4-2.9-21.3,2.5-25.5,12.5v0l-21.5,51.6
			c-3.7,8.8-1.1,18.9,6.2,24.9l26.5,21.7c-8.9,18.7-20.9,35.7-35.3,50.2c1-8.9,1.6-18,1.6-27c0-38.2-9.2-75.2-27.3-109.9
			c-17.3-33.2-41.8-62.8-73.1-88.2c-23.1-18.8-48.9-34.4-76.7-46.8c25.7-5.6,52.8-8.6,80.7-8.6c172.3,0,312,113.5,312,253.5
			c0,55-21.6,105.8-58.1,147.2c2.3,29.9,13.9,56.4,26.1,76.7c6.8,11.2,13.5,20.2,18.5,26.3c2.6,3.2,4.6,5.5,6,6.9
			c0.7,0.9,1.2,1.3,1.6,1.7l0.4,0.4C1030,843.5,1032,848.4,1032,853.5z"/>
	</g>
	<g>
		<path d="M600,346.4c-36.9-12.5-77.5-19.4-120-19.4c-172.3,0-312,113.5-312,253.5c0,55,21.6,105.8,58.1,147.2
			c-2.3,29.9-13.9,56.4-26.1,76.7c-6.8,11.2-13.5,20.2-18.5,26.3c-2.6,3.2-4.6,5.5-6,6.9c-0.7,0.9-1.2,1.3-1.6,1.7l-0.4,0.4
			c-5.5,5.6-7.2,13.9-4.1,21.2c3,7.3,10.1,12.1,18,12.1c35,0,70.2-10.8,99.4-23.5c28-12.2,51.7-26.7,66.2-37.3
			c38.8,14,81.7,21.8,126.9,21.8c42.5,0,83-6.9,120-19.4c60.4-20.5,111.3-55.9,145.4-100.7c19-25,32.9-52.8,40.3-82.6
			c4.1-16.4,6.3-33.4,6.3-50.8C792,475,712.8,384.6,600,346.4z M616.4,657.9l-12.9,47.3c-2.6,9.3-11.1,15.9-20.7,15.9
			c-60.7,0-116.1-22.4-158.5-59.5c-50.4-44.1-82.3-109-82.3-181.2c0-9.7,6.5-18.2,15.9-20.7l47.3-12.9c10.4-2.9,21.3,2.5,25.5,12.5
			v0l6.2,14.8l15.3,36.8c3.7,8.8,1.1,18.9-6.2,24.9l-26.5,21.7c17.9,37.8,48.5,68.5,86.4,86.4l21.7-26.5c6-7.4,16.1-9.9,24.9-6.2
			l51.6,21.5C613.9,636.6,619.2,647.5,616.4,657.9z"/>
	</g>
</g>
</svg>
