<?xml version="1.0" encoding="utf-8"?>
<!-- Generator: Adobe Illustrator 27.0.0, SVG Export Plug-In . SVG Version: 6.00 Build 0)  -->
<svg version="1.1" id="Layer_1" xmlns="http://www.w3.org/2000/svg" xmlns:xlink="http://www.w3.org/1999/xlink" x="0px" y="0px"
	 viewBox="0 0 1200 1200" style="enable-background:new 0 0 1200 1200;" xml:space="preserve">
<style type="text/css">
	.st0{fill:none;stroke:#FF0000;stroke-miterlimit:10;}
	.st1{fill:#FFFFFF;}
</style>
<g>
	<path d="M443.3,716.2H309.2l-21.5,63.5H196l130.1-359.5h101.4l130.1,359.5h-92.7L443.3,716.2z M420.8,648.6L376.2,517l-44,131.6
		H420.8z"/>
	<path d="M856.5,593.1c-9.6,17.2-24.2,31.2-44,41.7c-19.8,10.6-44.4,15.9-73.7,15.9h-54.3v129h-87.6V420.3h141.8
		c28.7,0,52.9,5,72.7,14.8c19.8,9.9,34.6,23.6,44.5,41c9.9,17.4,14.8,37.4,14.8,59.9C870.9,556.8,866.1,575.9,856.5,593.1z
		 M769.5,569.3c8.2-7.8,12.3-18.9,12.3-33.3s-4.1-25.4-12.3-33.3c-8.2-7.8-20.7-11.8-37.4-11.8h-47.6v90.1h47.6
		C748.8,581.1,761.3,577.1,769.5,569.3z"/>
	<path d="M1004,420.3v359.5h-87.6V420.3H1004z"/>
</g>
</svg>
