<?xml version="1.0" encoding="utf-8"?>
<!-- Generator: Adobe Illustrator 27.0.0, SVG Export Plug-In . SVG Version: 6.00 Build 0)  -->
<svg version="1.1" id="Layer_1" xmlns="http://www.w3.org/2000/svg" xmlns:xlink="http://www.w3.org/1999/xlink" x="0px" y="0px"
	 viewBox="0 0 1200 1200" style="enable-background:new 0 0 1200 1200;" xml:space="preserve">
<style type="text/css">
	.st0{fill:none;stroke:#FF0000;stroke-miterlimit:10;}
	.st1{fill:#FFFFFF;}
	.st2{font-family:'Ganess';}
	.st3{font-size:165.0975px;}
</style>
<path d="M958.7,577.6c0,160.7-160.3,290.9-358,290.9c-51.9,0-101.1-8.9-145.6-25c-16.6,12.2-43.8,28.8-75.9,42.8
	c-33.6,14.5-74,27-114.1,27c-9.1,0-17.2-5.5-20.7-13.8s-1.5-17.9,4.8-24.3l0,0l0,0l0,0l0,0l0.4-0.4c0.4-0.4,1-1,1.8-2
	c1.5-1.7,3.9-4.3,6.9-8c5.7-7,13.4-17.3,21.3-30.2c14-23.2,27.3-53.7,29.9-88c-42-47.5-66.7-105.9-66.7-168.9
	c0-160.7,160.3-290.9,358-290.9S958.7,417,958.7,577.6z"/>
<text transform="matrix(1 0 0 1 412.3879 548.5459)"><tspan x="0" y="0" class="st1 st2 st3">ccfO</tspan><tspan x="0" y="136.2" class="st1 st2 st3">svu===</tspan></text>
</svg>
