<?xml version="1.0" encoding="utf-8"?>
<!-- Generator: Adobe Illustrator 27.0.0, SVG Export Plug-In . SVG Version: 6.00 Build 0)  -->
<svg version="1.1" id="Layer_1" xmlns="http://www.w3.org/2000/svg" xmlns:xlink="http://www.w3.org/1999/xlink" x="0px" y="0px"
	 viewBox="0 0 1200 1200" style="enable-background:new 0 0 1200 1200;" xml:space="preserve">
<style type="text/css">
	.st0{fill:none;stroke:#FF0000;stroke-miterlimit:10;}
	.st1{fill:#FFFFFF;}
</style>
<path d="M958,577.6c0,160.7-160.3,290.9-358,290.9c-51.9,0-101.1-8.9-145.6-25c-16.6,12.2-43.8,28.8-75.9,42.8
	c-33.6,14.5-74,27-114.1,27c-9.1,0-17.2-5.5-20.7-13.8s-1.5-17.9,4.8-24.3l0,0l0,0l0,0l0,0l0.4-0.4c0.4-0.4,1-1,1.8-2
	c1.5-1.7,3.9-4.3,6.9-8c5.7-7,13.4-17.3,21.3-30.2c14-23.2,27.3-53.7,29.9-88C266.8,699,242,640.7,242,577.6
	c0-160.7,160.3-290.9,358-290.9S958,417,958,577.6z"/>
<g>
	<path class="st1" d="M758.6,586.5c-2.7-14.7-9.1-27.7-18.9-39c-0.5-0.6-0.7-1.1-0.4-1.9c3.3-10.4,4.5-21,3.5-31.9
		c-0.9-9.5-3.4-18.6-7.5-27.3c-8.2-17.2-20.8-30.3-37.9-38.7c-16.6-8.2-34.1-10.4-52.3-6.9c-0.7,0.1-1.2,0-1.7-0.5
		c-4.1-4.5-8.7-8.5-13.7-12c-12.7-8.8-26.9-13.6-42.3-14.4c-10.6-0.5-21,0.9-31.1,4.4c-14.3,5-26.2,13.2-36,24.7
		c-6.6,7.9-11.5,16.7-14.8,26.4c-0.2,0.7-0.6,1-1.3,1.1c-2.9,0.8-5.9,1.5-8.8,2.5c-13.4,4.5-24.9,12-34.2,22.6
		c-10.9,12.2-17.6,26.4-20.1,42.6c-1.6,10.3-1.2,20.5,1.1,30.6c3.1,13.4,9.2,25.3,18.3,35.7c0.6,0.7,0.6,1.2,0.4,2
		c-2.1,6.5-3.3,13.2-3.7,20c-0.7,13.7,1.8,26.8,7.8,39.2c8.2,17.2,20.8,30.2,37.9,38.6c16.6,8.2,34.1,10.4,52.2,6.9
		c0.9-0.2,1.4,0.1,2,0.7c5.6,6.1,12,11.3,19.2,15.4c13,7.4,27,11,42,11c4.2-0.5,8.4-0.7,12.6-1.4c18.2-3.1,33.6-11.4,46.2-24.8
		c8-8.5,13.8-18.4,17.6-29.4c0.3-0.8,0.5-1.2,1.5-1.4c8.1-1.8,15.9-4.7,23.1-8.9c13.2-7.7,23.5-18.2,30.7-31.6
		C759.1,623.8,762.1,605.7,758.6,586.5z M630.4,468.9c10.2-5.9,21.2-8.8,32.9-8.2c22.1,1.3,39,11.5,50.3,30.5
		c6.6,11.2,8.9,23.4,7.8,36.3c-0.1,1.3-0.3,2.5-0.5,4c-0.4-0.2-0.7-0.3-0.9-0.5c-21.7-12.5-43.4-25.1-65.1-37.6
		c-3.8-2.2-7.6-2.2-11.4,0c-11.7,6.8-23.5,13.6-35.2,20.4c-14.1,8.2-28.2,16.3-42.4,24.5c-0.2,0.1-0.4,0.2-0.8,0.4v-1.3
		c0-9.6,0-19.1,0-28.7c0-1.5,0.5-2.2,1.7-2.9C587.9,493.4,609.1,481.2,630.4,468.9z M635.1,576.2c0,6.4,0,12.8,0,19.1
		c0,0.8-0.3,1.2-0.9,1.6c-10.9,6.3-21.9,12.6-32.8,18.9c-1,0.6-1.7,0.6-2.7,0c-10.9-6.4-21.9-12.7-32.8-19c-0.7-0.4-1-0.8-1-1.7
		c0-12.7,0-25.4,0-38.2c0-0.8,0.2-1.3,1-1.8c11-6.3,22-12.7,33-19.1c0.8-0.5,1.4-0.5,2.2,0c11,6.4,22,12.7,33,19.1
		c0.8,0.4,1,0.9,1,1.8C635.1,563.4,635.1,569.8,635.1,576.2z M522.3,495.9c0.1-16.5,6-30.8,17.5-42.6c9.7-9.9,21.6-15.8,35.4-17.5
		c16.7-2.1,31.7,2.1,45.1,12.2c0.5,0.4,0.9,0.8,1.5,1.2c-9,5.2-17.9,10.3-26.7,15.4c-13.2,7.6-26.4,15.2-39.6,22.9
		c-3.9,2.2-5.4,5.7-5.4,10.2c0,29.5,0,59,0,88.5v1.4c-0.3-0.1-0.5-0.2-0.7-0.3c-8.6-5-17.3-10-25.9-14.9c-0.8-0.5-1.1-1-1.1-2
		C522.3,545.6,522.2,520.8,522.3,495.9z M462.7,563.2c-2.7-12.8-1.4-25.2,4-37.2c5.8-13,15.2-22.8,27.8-29.4
		c1.8-0.9,3.8-1.7,5.6-2.5c0.2-0.1,0.5-0.1,0.9-0.2v1.5c0,24.7,0,49.4,0,74.2c0,4.8,2,8.2,6.2,10.6c22,12.7,44,25.4,66,38.1
		c3.9,2.2,7.8,4.5,11.9,6.9c-0.8,0.5-1.5,0.9-2.2,1.3c-8.1,4.7-16.2,9.3-24.3,14.1c-0.9,0.5-1.5,0.5-2.4,0
		c-20.2-11.7-40.5-23.4-60.7-35.1c-5.4-3.1-10.6-6.4-15.1-10.7C471.2,586.1,465.3,575.5,462.7,563.2z M569.5,683.4
		c-10,5.7-20.7,8.7-32.2,8.1c-25.1-1.4-43.2-13.6-53.9-36.3c-5.1-10.8-6.2-22.2-4.4-34c0-0.1,0.1-0.3,0.2-0.5
		c1.9,1.1,3.7,2.1,5.6,3.2c20.1,11.6,40.2,23.2,60.3,34.8c3.9,2.3,7.8,2.3,11.7,0c25.7-14.8,51.3-29.7,77-44.5
		c0.3-0.2,0.7-0.4,1.2-0.6c0,0.5,0.1,0.8,0.1,1.1c0,9.9,0,19.7,0,29.6c0,0.9-0.3,1.4-1.1,1.9C612.5,658.6,591,671.1,569.5,683.4z
		 M677.6,656.6c-0.5,24.1-11.8,42.1-33,53.7c-8.7,4.7-18.1,6.8-27.9,6.7c-14.1-0.1-26.7-4.7-37.7-13.4c-0.2-0.2-0.4-0.3-0.7-0.6
		c3.2-1.8,6.3-3.7,9.5-5.5c18.9-10.9,37.8-21.8,56.8-32.8c3.7-2.2,5.5-5.5,5.5-9.8v-90.4c0.6,0.3,1,0.5,1.5,0.8
		c8.3,4.8,16.7,9.6,25,14.4c0.9,0.5,1.3,1.1,1.3,2.2C677.7,606.9,678.1,631.7,677.6,656.6z M729.4,633.7c-7,11.2-16.8,19.3-29,24.2
		c-0.4,0.2-0.8,0.3-1.4,0.5v-1.5c0-24.8,0-49.5,0-74.3c0-4.8-2-8.2-6.1-10.6c-24.4-14.1-48.8-28.2-73.2-42.3c-1.5-0.9-3-1.7-4.7-2.7
		c2.2-1.3,4.2-2.4,6.2-3.6c6.8-3.9,13.6-7.9,20.4-11.8c0.8-0.5,1.4-0.5,2.3,0c21.3,12.4,42.7,24.6,64.1,37
		c15.7,9.1,25.6,22.6,29.4,40.4C740.7,604.9,737.9,619.9,729.4,633.7z"/>
</g>
</svg>
