<?xml version="1.0" encoding="utf-8"?>
<!-- Generator: Adobe Illustrator 27.0.0, SVG Export Plug-In . SVG Version: 6.00 Build 0)  -->
<svg version="1.1" id="Layer_1" xmlns="http://www.w3.org/2000/svg" xmlns:xlink="http://www.w3.org/1999/xlink" x="0px" y="0px"
	 viewBox="0 0 1200 1200" style="enable-background:new 0 0 1200 1200;" xml:space="preserve">
<style type="text/css">
	.st0{fill:none;stroke:#FF0000;stroke-miterlimit:10;}
	.st1{fill:#FFFFFF;}
</style>
<path d="M601.5,576.3V245.7c0-13.3,10.4-24.6,23.7-24.6c183.1,0,331.5,148.4,331.5,331.5c0,13.3-11.2,23.7-24.6,23.7H601.5z
	 M199,623.7c0-179.5,133.3-328.1,306.3-351.8c13.6-1.9,25.2,9,25.2,22.8v352.7L762.1,879c9.9,9.9,9.2,26.2-2.2,34.2
	c-58,41.4-129,65.7-205.7,65.7C358.1,978.9,199,819.9,199,623.7z M978,647.4c13.8,0,24.6,11.5,22.8,25.2
	c-11.4,82.7-51.2,156.3-109.4,210.6c-8.9,8.3-22.8,7.7-31.4-1L625.2,647.4H978z"/>
</svg>
