<?xml version="1.0" encoding="utf-8"?>
<!-- Generator: Adobe Illustrator 27.0.0, SVG Export Plug-In . SVG Version: 6.00 Build 0)  -->
<svg version="1.1" id="Layer_1" xmlns="http://www.w3.org/2000/svg" xmlns:xlink="http://www.w3.org/1999/xlink" x="0px" y="0px"
	 viewBox="0 0 1200 1200" style="enable-background:new 0 0 1200 1200;" xml:space="preserve">
<style type="text/css">
	.st0{fill:#F99191;}
	.st1{fill:#1A3164;}
	.st2{fill:#C76696;}
	.st3{fill:#241233;}
	.st4{fill:#7437A0;}
	.st5{opacity:0.1;}
	.st6{fill:#FFAAA8;}
	.st7{fill:#030205;}
	.st8{fill:#FAFAFA;}
	.st9{opacity:0.3;}
	.st10{opacity:0.2;}
	.st11{fill:#FF90C5;}
	.st12{fill:#F0F0F0;}
	.st13{opacity:0.15;}
	.st14{opacity:0.7;}
	.st15{fill:#FFFFFF;}
</style>
<g>
	<g>
		<g>
			<path class="st0" d="M601.6,457c9.9-2.4,11.9-2.7,19.3-3.9c4.9-0.8,7.7,1.2,19.3,8c12,7.1,14.1,10.2,15.1,14
				c1.2,4.4-1.8,8.2-3.5,8.9c3.7,2.5,3.2,9.6-2.3,12c3.2,3.5,1.3,8.8-2.9,10.3c1.8,2.2,0.7,10.2-6.6,11.8c-7.8,1.7-19.1,2-19.1,2
				L601.6,457z"/>
			<g id="Flag_00000072269277180731467080000014377644432220755112_">
				<g>
					<path class="st1" d="M572.3,973.4L654,194.3l-8.3-0.9L564,972.6C563.8,975.9,572.1,976.6,572.3,973.4z"/>
					<path class="st0" d="M621,520.1c-2.3,0-5.2-3.9-7.4-6.4c-2.1-2.5-4.8-5.6-4.6-7.7c0.4-3,4.6-2.9,4.6-2.9s-0.5-0.3-2-1.9
						c-2.6-2.6,2.3-6,6.6-4.3c0,0-1.8-1.1-1.8-2.3c0-2.3,2.2-5.5,6.1-5.2c-3-1.6-1.8-5.8,0.3-9.1c0.8,0,1.5,0,2.3,0.1
						C627.7,492.5,625.8,505.9,621,520.1z"/>
					<path class="st2" d="M646.7,506.3c-2.8,1-5.7,1.6-8.6,2.2c-2.9,0.6-5.8,1.2-8.7,1.4c-2.9,0.6-5.5-0.9-8.1-2.2
						c-2.6-1.4-5.1-3-7.6-4.6c2.2,2,4.6,3.8,7.2,5.4c2.5,1.5,5.5,3.1,8.6,2.6c3-0.4,5.9-0.9,8.8-1.7
						C641.2,508.5,644.1,507.7,646.7,506.3z"/>
					<path class="st2" d="M618.2,496.8c2.4,1.2,4.8,2.6,7.4,3.5c1.3,0.5,2.6,0.9,4.1,0.8c1.5-0.1,2.7-0.4,4.1-0.7
						c5.3-1.3,10.6-2.7,15.7-4.5c-5.4,0.9-10.6,2.3-15.9,3.4c-1.3,0.3-2.7,0.6-3.9,0.8c-1.2,0.1-2.5-0.3-3.8-0.7
						C623.3,498.7,620.8,497.7,618.2,496.8z"/>
					<path class="st2" d="M622.4,489.3c2.4,0.8,4.8,2.2,7.5,1.9c2.6-0.3,5-1.2,7.5-1.9c4.9-1.6,9.7-3.2,14.4-5.3
						c-5,1.2-9.8,2.8-14.7,4.2c-2.4,0.8-4.9,1.6-7.3,2.1C627.4,490.8,625,489.8,622.4,489.3z"/>
					<path class="st3" d="M640.8,194.8c0.5,5,5.1,8.7,10.1,8.2c5-0.5,8.7-5.1,8.2-10.1c-0.5-5-5.1-8.7-10.1-8.2
						C643.9,185.2,640.3,189.8,640.8,194.8z"/>
					<path class="st3" d="M642.9,177.6c-0.6,5,3,9.6,8.1,10.2c5,0.6,9.6-3,10.2-8.1c1.5-13-5.7-30.2-5.7-30.2
						S644.4,164.6,642.9,177.6z"/>
				</g>
				<g>
					<path class="st4" d="M650.2,210.4c52.1,77,139.5,54.1,209.4,57.1c75.7,3.3,119,32.3,138.4,67.7c-21.1-8-82.7-8.8-103.5,5.1
						c0,0,71.5,58.1,63.1,140.2c-18.7-37.1-54.8-67.3-131.5-59.6c-67.4,6.7-154,28.4-194.6-27.1L650.2,210.4z"/>
					<path class="st5" d="M704.5,401.4c58.7,24.7,232.3-38.8,253.1,79c-18.7-37.1-54.8-67.3-131.5-59.6
						c-67.4,6.7-154,28.4-194.6-27.1l18.7-183.3C643,282.5,645.8,376.7,704.5,401.4z"/>
				</g>
			</g>
			<g>
				<path class="st6" d="M518.4,474.1c0,0,30.5,13.4,49.9,22.1c14.9,6.7,15,8.9,19.8,14.3c5.4,5.9,24.7,8.1,24.7,8.1l0.6-5.3
					c-2.1-2.5-4.5-5.3-4.3-7.4c0.4-3,4.6-2.9,4.6-2.9s-0.4-0.3-2-1.9c-1.9-2,0.4-4.4,3.4-4.8l0.7-6.3c2.3-2.2,4.1-4.5,5.5-6.8l0,0
					c0.6-1,1.1-2,1.5-3c0.3,0,6.8-0.1,12.3,3.7c2.4,4.8,6.2,10.6,13,10.8c5.5,0.2,5.6-2.4,3.1-8.1c-3.4-7.8-4.5-11.6-7.3-15.6
					c-2.8-4-18.2-10.8-23.1-13c-4.8-2.2-8.8-2.1-17.9-1.1c-9.1,0.9-11.8-0.3-16.3-1.9c-4.4-1.5-27.4-15.6-27.4-15.6L518.4,474.1z"/>
				<path class="st0" d="M615.7,490c-5,6.3-16.3,9-24.8,8.3c14.1,3.5,24.1-1.3,24.1-1.3L615.7,490z"/>
			</g>
			<path class="st4" d="M425.8,264c36.5,9.6,42,23.5,58.7,72.1c14.9,43.5,23,67.8,23,67.8l61.8,41.4c0,0-13.2,8.9-16.2,44.6
				c0,0-34-14.7-66.2-28.4c-18.7-7.9-22.9-13.6-31.5-33.4c-9.8-22.7-29.2-70.6-29.2-70.6L425.8,264z"/>
		</g>
		<g id="Character_00000106118576737766017860000004939378154861915046_">
			<g id="Bottom_00000119090168175661995980000007540200471377855873_">
				<g id="Bottom_00000143577307883505393410000016366730037087065272_">
					<g>
						<polygon class="st7" points="432.5,981.9 442.8,976.6 432.5,973.9 						"/>
						<path class="st7" d="M536.1,999.6c0,0-123.8-53.8-125.2-45.5c-0.3,1.8-0.2,3.5,0.1,5c-0.1-0.1-0.2-0.3-0.3-0.4l2.5,15.5
							c0,0,8.9,7.4,19.3,7.8c0-0.7,0-5.4,0-8c3.4,1.4,6.8,3,10.9,5.6c8,5.1,13.2,14.2,21.7,24.7c6.2,7.7,17.1,11.1,33.3,13.2
							c17.4,2.2,32.6-1.4,36.8-6.1C538.6,1007.5,536.7,1000.6,536.1,999.6z"/>
						<path class="st6" d="M532.6,996.7c-1.2-1.2-5.7-6-11.7-11.2c-5.3-4.5-11.4-10.3-18-14.9c-2.6-1.8-6.7-4.8-8.9-7.2
							c-2.2-2.3-4.3-4.6-6.2-7.1c-6.1-7.7-11-16.2-15.2-25.1c-2-4.2-5.6-13.4-4.9-30.7c1.1-26.1,3.1-35.6,2.9-52.6l-58.5,9
							c1.9,9.4,4,30.3,5.1,41c1.6,16.2,4,17.7-2,34.1c-1.8,4.8-4.5,9.4-4.6,14.6c-0.3,8.3,6.4,15.4,13.7,19.4
							c6.1,3.3,13,4.6,18.9,8.1c6.2,3.7,11.1,9.3,15.5,14.9c4.2,5.3,7.6,11.5,13.5,15.1c6.5,4,12.7,5.2,20.1,6.6
							c8.6,1.6,19.6,1.6,26.9,0.9C532,1010.5,541.4,1005.7,532.6,996.7z"/>
						<g>
							<g>
								<path class="st3" d="M525.5,987.8c-5.4-4.4-13-10.7-22.1-17.8c-2-1-10.2-2.8-19,2c-18.1,9.9-21,23.7-21,23.7
									s4.1,9.2,15.1,12.9c21.2,8.9,58.9,5.4,59.2-4.4C537.7,998,532,993.1,525.5,987.8z M416.3,928.5c0,0-1.2,3.2-4.3,9.6
									c-3.1,6.3-3.6,12.6,0.5,18.8c5.4,8.2,12,10.7,18.7,12.3C436.7,950.6,423.7,932.4,416.3,928.5z"/>
							</g>
						</g>
					</g>
					<g>
						<path class="st7" d="M310.2,976.2c3.4,5.7-1.6,26.6-1.1,41.7c0.5,13.6,2.8,35-0.8,50.9c-3.8,16.3-17.7,33.3-36.2,18
							c-11.4-9.5-15.9-20.8-17.1-40.4c-0.8-13.7,5-32.4,10-49.1c5.8-19.4,8.1-29.8,8.1-29.8L310.2,976.2z"/>
						<path class="st6" d="M273.7,874.8c-2,31.8,1.3,54.2,1.1,74.6c-0.4,9.5-1.2,17.5-3.4,27.4c-2.9,12.9-7.8,30.9-9.9,39.3
							c-2.9,11.7-5.1,19.1-1.3,32.4c0.3,1,0.8,2,1.3,3c5.5,11,19.7,19.5,24.4,18.3c1.2,2.2,4.5,3.5,8.1,3c0.5-0.1,1-0.2,1.5-0.3
							c0.5-0.2,1-0.4,1.6-0.6c3.1-1.4,6.1-4.5,7.9-9.8c0.3-0.9,0.6-1.8,0.8-2.9c3.7-16.3,1.5-27,1.3-33.4
							c-0.2-7.4,0.4-16.8,1.3-28.7c0.9-11.9,4.5-49.3,9-67.2c3.3-12.4,7.5-28,11.8-44.7L273.7,874.8z"/>
						<path class="st3" d="M258.4,1031.4c11.5-4.8,44.5-4.8,49.5,11.3c-0.2,15.1-0.3,25.4-10.1,38.4c-13,17.2-29.2-1.6-35.4-13.5
							C256.2,1055.7,256.6,1039.5,258.4,1031.4z"/>
					</g>
					<path class="st3" d="M328.5,427.1c-16.7,28.5-39.1,68.2-41.2,132.7c-2.8,86.1-4.6,147.7-5.2,158.1
						c-0.6,10.4-7.7,29.3-14.4,80.2c-6.7,51,0.6,148.5,0.6,148.5s5.7,11.6,25.2,13.9c18,2.1,26.4-6.3,26.4-6.3
						s28.5-136.5,36.2-167.1c7.7-30.6,33.9-164.5,33.9-164.5l9.6,82.4c0,0-6.3,28.1-2,73c4.3,45,18.5,131.7,18.5,131.7
						s8.2,8.6,27.3,7.9c17.5-0.7,26.3-10.4,26.3-10.4s16.8-171.2,18.1-222c1.4-50.8,0-177.7-14-253.4L328.5,427.1z"/>
					<path class="st7" d="M405.8,541.4l-15.7,81.3l9.6,82.4l0.3-78.2l15.6-77.5c12.3-2.6,44-24.1,46.8-44.7
						C445.2,531.5,405.8,541.4,405.8,541.4z M314.1,847c-5.1,26.4-9.9,52.9-14.3,79.4c6.5-26.1,12.6-52.3,18.4-78.5
						c5.9-26.3,11.4-52.5,17-78.9c5.2-26.5,11.9-86.4,14.9-113.2c3-26.7,5.3-53.5,7.3-80.4c-4.1,26.6-7.7,53.2-11.4,79.8
						c-3.8,26.6-10.7,86.4-16,112.6C324.5,794.1,319.1,820.6,314.1,847z M464.5,656.3c0.2,11.7,0.6,23.4,0.1,34.9
						c-0.6,11.6-1.6,23.3-2.5,34.9l-2.7,35c-1.8,23.3-3.4,46.7-4.7,70.1c3.4-23.2,6.4-46.4,8.9-69.7c2.5-23.3,5-46.5,6.4-70.1
						c0.6-23.7-0.8-47-2.3-70.4c-1.5-23.4-3.7-46.7-6.7-70l2.5,70.2C463.9,633,464.3,644.6,464.5,656.3z"/>
				</g>
			</g>
			<g id="Top_00000166652604913436540200000010544993153513850009_">
				<path class="st7" d="M337.1,137.7c-16.6,8.9-18.3,22.7-19.2,56.3c-1.5,61-20.2,130.5-20.2,130.5l139.6,1.6l7.5-139.7
					c0,0,12.4-15,11.8-31.1c-0.5-16.1-9.4-37.5-39-45.2C393.1,103.7,345.1,106.2,337.1,137.7z"/>
				<path id="Chest_00000020386141765906060470000015572819304108170934_" class="st8" d="M310.1,459.1c1.8-13.1,10.9-15,6.5-46.3
					c-2.2-15.5-10-55.5-10-55.5s26.6-20.5,18.1-80.4l28.6-11.5l15.6-5.5l43.6,1.8l22.4,6.1c7.7,6.6,21.7,17,33.1,33
					c16.3,23.1,19.3,48.4,2.6,67.4c-0.2,3.7,0.5,60.7,4.8,74.6c1.7,5.5,4,13,0.4,20.4C459.8,489.7,364.6,516.6,310.1,459.1z"/>
				<g>
					<g>
						<path class="st4" d="M412.6,261.8l22.3,3.3c21.5,16.2,47,45.5,48.4,68c1.4,22.5-10,37.7-10,37.7s-0.3,45.8,4.9,70
							c5.2,24.2,11,88.9,11,88.9s0.5,4-17.5,9.1c-5.5-31-19.1-144.8-18.4-172.2C454.2,339.3,454.7,296.2,412.6,261.8z"/>
						<path class="st9" d="M412.6,261.8l22.3,3.3c21.5,16.2,47,45.5,48.4,68c1.4,22.5-10,37.7-10,37.7s-0.3,45.8,4.9,70
							c5.2,24.2,11,88.9,11,88.9s0.5,4-17.5,9.1c-5.5-31-19.1-144.8-18.4-172.2C454.2,339.3,454.7,296.2,412.6,261.8z"/>
						<path class="st10" d="M456.8,379.4c1.8-7.3,3.7-14.5,5.7-21.7c2-7.2,3.9-14.4,5.7-21.6c0.8-3.6,1.7-7.3,2-10.8
							c0.5-3.4-1.9-6.3-4.3-9c-5-5.3-11-9.8-17.2-13.8l-0.6-0.4l0.1-0.7c0.7-3.8,0.6-7.9-0.1-11.8c-0.7-3.9-2-7.8-4.1-11.2
							c-2.2-3.3-5.1-6.2-8.4-8.6c-3.2-2.4-6.8-4.5-10.5-6.2c3.9,1.4,7.6,3.2,11,5.5c3.5,2.2,6.6,5.1,9.1,8.5
							c2.4,3.5,3.9,7.5,4.8,11.6c0.8,4.1,0.9,8.3,0.2,12.6l-0.4-1.1c6.3,4.1,12.4,8.5,17.7,14c1.3,1.4,2.5,2.9,3.5,4.7
							c0.3,0.4,0.4,0.9,0.7,1.4c0.2,0.5,0.4,0.9,0.5,1.5c0.3,1.1,0.2,2.1,0.1,3.1c-0.4,3.8-1.3,7.5-2.2,11.1
							c-1.8,7.3-4.1,14.4-6.3,21.5C461.5,365.2,459.1,372.3,456.8,379.4z"/>
					</g>
					<g>
						<path class="st4" d="M353.4,265.4c0,0,9.4,12.1,21.8,40.5c12.4,28.4,24.4,54.3,24.2,80.6s-8.8,162.5-8.8,162.5
							s-37.8,5.7-72-8.1l2.8-52.8l-12.9,50.3c0,0-16.4-5.9-22.4-11.3c8.9-54.8,28.9-80.9,29.9-101.1c0.7-13.9-11.1-52.4-13.4-87.2
							c-2-30.3,4.2-60.9,4.2-60.9L353.4,265.4z"/>
						<path class="st9" d="M353.4,265.4c0,0,9.4,12.1,21.8,40.5c12.4,28.4,24.4,54.3,24.2,80.6s-8.8,162.5-8.8,162.5
							s-37.8,5.7-72-8.1l2.8-52.8l-12.9,50.3c0,0-16.4-5.9-22.4-11.3c8.9-54.8,28.9-80.9,29.9-101.1c0.7-13.9-11.1-52.4-13.4-87.2
							c-2-30.3,4.2-60.9,4.2-60.9L353.4,265.4z"/>
						<path class="st10" d="M394.4,394.4c-2.1-6.8-6.1-12.6-10.4-18.2c-4.2-5.6-8.9-10.9-13.6-16.1c-2.3-2.6-4.7-5.2-7.2-7.8
							l-3.6-3.9c-0.6-0.7-1.2-1.3-1.8-2c-0.2-0.2-0.3-0.3-0.5-0.6c-0.2-0.3-0.3-0.7-0.4-1c-0.2-0.6-0.2-1.2-0.2-1.8
							c0.5-4.1,2.1-7.2,3.7-10.5c1.7-3.2,3.5-6.2,5.4-9.3l0.2,1.8l-10.8-10.9l-5.4-5.5l-1.3-1.4l-0.7-0.7c-0.2-0.3-0.4-0.3-0.9-1.1
							c-0.4-1.1-0.3-1.7-0.3-2.4c0-0.7,0.1-1.4,0.2-2c0.8-5.2,2.2-10.2,3.7-15.1c1.5-4.9,3.1-9.8,4.8-14.7c-1.2,5-2.5,10-3.6,15
							c-1.1,5-2.3,10-2.9,15c-0.1,1.1-0.2,2.7,0,3.2c-0.2-0.3,0.1,0.1,0.4,0.3l0.7,0.7l1.4,1.3l5.6,5.4l11.1,10.9l0.8,0.8l-0.6,1
							c-1.8,2.9-3.6,6-5.1,9.1c-1.5,3-3.2,6.3-3.5,9.3c0,0.3,0,0.7,0.1,0.8c0,0.1,0.1,0.1,0.1,0.2c0,0.1,0.2,0.3,0.3,0.4
							c0.5,0.6,1.1,1.3,1.7,1.9l3.6,3.9c2.4,2.6,4.8,5.2,7.1,7.9c4.6,5.4,9,11,13,16.8c2,2.9,3.8,6,5.5,9.1
							C392.5,387.6,393.8,391,394.4,394.4z"/>
					</g>
				</g>
				<g id="Head_00000085241073094391503670000010675981545439218309_">
					<g id="Head_00000104672383647975913710000009427508130321429673_">
						<g id="Head_00000171678268473220311210000013073803876219824546_">
							<g id="XMLID_00000054958180090157444820000011010404334135945402_">
								<g id="XMLID_00000107547924547468266890000013894309191480755860_">
									<path id="XMLID_00000067222034282202434980000004661149000876013451_" class="st6" d="M352.4,227.3
										c-6.2,1.9-12.5-0.6-16.8-4.3c-9.5-8.4-11.4-17.8-8.2-24.6c2.7-5.6,10.3-9.8,16.3-6.9c6.4,3.1,7,6.1,9.7,10.1
										c2.8,4.1,8.2,0,4.3-16.9c11-6.8,7-26.1,12.4-34.8c8.5-13.6,25.1-12.2,30.7-9.8c4.3-4.3,13.5-7.3,22-3.9
										c8.3,3.3,14.5,11.6,20.7,41.6c6.3,30.6,3.3,51.9-3.1,59.2c-4.4,5.1-15.5,9.8-26.5,10.4l-1.3,16.8c0,0,36.2,28.4-4.2,29.9
										c-30.3,1.1-52.3-29.6-52.3-29.6l2.4-42.8C358.5,221.6,358.3,225.5,352.4,227.3z"/>
								</g>
							</g>
						</g>
						<g id="XMLID_00000104679778145720801490000005171636813782848896_">
							<path id="XMLID_00000162317815688260435780000009127636959751540881_" class="st7" d="M394.7,173.7l-12.3,1
								c-0.2-3.5,2.5-6.5,5.9-6.8C391.6,167.6,394.5,170.2,394.7,173.7z"/>
							<path id="XMLID_00000112591794628388221630000017330217816161056689_" class="st7" d="M429.8,163.5l-12.4,1
								c-0.4-3.4,2-6.5,5.4-6.8C426.3,157.5,429.4,160.1,429.8,163.5z"/>
							<path id="XMLID_00000076595783978043635420000011860218880864818566_" class="st2" d="M397.2,218.3l17.5,2.6
								c-0.5,4.9-4.9,8.3-9.7,7.6C400.1,227.8,396.7,223.2,397.2,218.3z"/>
							<path class="st11" d="M408.3,228.3c-1.1-4-4.8-6.9-9.1-6.8c-0.6,0-1.2,0.1-1.7,0.2c1,3.4,3.8,6.1,7.5,6.7
								C406.1,228.7,407.3,228.6,408.3,228.3z"/>
							<path class="st7" d="M431.5,178.5c1.3,2.5,0.4,5.5-2.1,6.8c-2.5,1.3-5.5,0.3-6.8-2.1c-1.3-2.5-0.4-5.5,2.1-6.8
								C427.1,175.1,430.2,176,431.5,178.5z"/>
							<path class="st7" d="M395,184.6c1.3,2.5,0.4,5.5-2.1,6.8c-2.5,1.3-5.5,0.3-6.8-2.1c-1.3-2.5-0.4-5.5,2.1-6.8
								C390.7,181.2,393.7,182.1,395,184.6z"/>
							<path id="XMLID_00000079477418514909028020000005145039156157472946_" class="st0" d="M408.1,178.1l-4.6,32.7l18.7-1.3
								C420.6,196,413.5,185.6,408.1,178.1z"/>
						</g>
					</g>
					<path class="st0" d="M413.9,247.3c-15.7,1.2-35.1-2.7-41.8-12.1c4.4,10.6,16,15,25.1,16.5c11.1,1.8,16.3,1.3,16.3,1.3
						L413.9,247.3z"/>
				</g>
				<g id="Arm_00000075872082311474601790000005050103843761034115_">
					<g>
						<path class="st0" d="M282.2,540c-3.6-3.8-8.2-7-9.8-12.2c-0.8-2.7-0.6-5.8,1.1-8c0.4-0.5,0.8-0.9,0.9-1.5c0.1-0.5,0-1-0.1-1.4
							c-0.4-2-0.6-4.1,0.3-5.9c0.7-1.6,2.1-2.8,3.7-3.3c-1-2.9-1-6-0.1-8.9c1.1-3.4,4.5-6.2,6.9-2.4c1.2,1.8,2,3.9,2.8,5.9
							c1.9,5.1,3.1,10.4,3.7,15.8c0.7,5.6,2.4,21.5-6.3,22.4C284.7,540.5,282.8,540.5,282.2,540z"/>
						<path class="st6" d="M314.9,281.3c-33.3,7-36.5,17.6-55.8,45.5c-19.1,27.5-43.6,65.9-49.5,79.4c-7.4,16.7-8.9,23.1,9.2,40.3
							c9.3,8.9,22.3,19.4,35.5,31.4c10.4,9.4,22.9,19.4,33,29.2c2.7,2.6,4.1,5.2,3.3,9.1c-0.5,2.3-1.4,4.4-1.6,6.7
							c-0.3,3,0.7,5.9,0.9,8.9c0.2,3-0.7,6.4-3.3,7.7c-1.3,0.6-2.8,0.7-4.2,0.6c2.6,1.7,5.3,3.4,8.3,4.3c3,0.9,6.3,0.9,9.1-0.5
							c2.7-1.4,4.7-4,7.6-4.9c1.6-0.5,3.2-0.5,4.8-0.9c1.6-0.5,3.1-1.5,4.1-2.8c1.6-2.1,2.2-5.1,4.5-6.4c1.1-0.6,2.4-0.8,3.6-1.3
							c2.4-1,3.9-3.5,4.4-6.1c0.5-2.6,0.1-5.2-0.4-7.7c-1.2-6.9-2.7-13.7-4.7-20.4c-0.7-2.3-2-4.3-3.4-6.2c-1.6-2.2-3.2-4.5-4.9-6.6
							c-11.8-14.4-49.3-62.5-49.3-62.5l41.4-54.3C307.3,363.6,337.5,328.5,314.9,281.3z"/>
						<path class="st11" d="M265.9,417.8c-10,10.2-25.7,11.3-31.6,11.1c20.7,7.9,35-6.7,35-6.7L265.9,417.8z"/>
					</g>
					<path class="st12" d="M244.8,469.7l9.4,8.2c0,0,12.8-1,23-13.2c10.4-12.5,9.6-21.6,9.6-21.6l-10.9-12.3L244.8,469.7z"/>
					<path class="st4" d="M315.2,275.8c-23.9,5.2-28.4,8.4-45.5,32.4c-17.1,24-46,69.7-53.5,81.5c-7.5,11.8-18.7,32.2-12.2,42.5
						c6.5,10.2,42.1,40.2,42.1,40.2s12-0.6,23.8-12.7c12.2-12.6,11.2-25.4,11.2-25.4l-13.2-16.6c0,0,36.9-47.6,43.6-56.4
						C318.2,352.6,332.9,322.9,315.2,275.8z"/>
					<path class="st13" d="M267.9,417.8c-4.8-5.4-16.5-14.2-25.1-15.7c9-1.6,22.4,4.9,28.7,10.8L267.9,417.8z"/>
				</g>
			</g>
		</g>
	</g>
	<g class="st14">
		<path class="st15" d="M723.5,309.9l-13-0.7l0.6-10.6l37.3,1.9l-0.6,10.6l-13-0.7l-3.5,67.9l-11.2-0.6L723.5,309.9z"/>
		<path class="st15" d="M754.1,300.9l11.2,0.6l-4.1,78.5l-11.2-0.6L754.1,300.9z"/>
		<path class="st15" d="M802.3,303l-0.6,12.1c0.3-0.9,0.7-1.7,1.1-2.5c1.4-2.6,3.1-4.8,5.3-6.5c1.3-1,2.6-1.9,4.1-2.5L802.3,303z"/>
		<path class="st15" d="M773,301.8l10.1,0.3c0.4,0,0.7,0.3,0.8,0.6l21.8,80l-10-0.5c-0.4,0-0.7-0.3-0.8-0.6l-11.9-43.5l-0.2,0
			l-1.8,43.1l-11.3-0.6L773,301.8z"/>
		<path class="st15" d="M839.8,327.7l0.2-3.9c0.2-3.1-0.2-5.9-1.2-8.3s-2.3-4.5-4-6.1c-1.7-1.7-3.6-2.9-5.8-3.8
			c-2.2-0.9-4.4-1.4-6.6-1.5c-2.2-0.1-4.5,0.2-6.7,0.8c-2.3,0.7-4.3,1.8-6.2,3.2c-1.9,1.5-3.4,3.4-4.6,5.7c-1.2,2.3-1.9,5.1-2.1,8.2
			l-1.8,34.6l5.9,21.7c1.4,1.2,3,2.2,4.7,2.9c2.2,0.9,4.4,1.4,6.6,1.5c2.2,0.1,4.5-0.2,6.7-0.8c2.3-0.7,4.3-1.8,6.2-3.2
			c1.9-1.5,3.4-3.3,4.6-5.6c1.2-2.3,1.9-5,2.1-8.2l1.3-24.3l-19.9-1l-0.5,9.8l8.8,0.5l-0.8,14.6c-0.1,2.7-1,4.6-2.5,5.8
			c-1.6,1.2-3.3,1.7-5.4,1.6c-2-0.1-3.8-0.8-5.2-2.2c-1.4-1.3-2.1-3.4-1.9-6l2.1-40.8c0.1-2.7,1-4.6,2.5-5.8
			c1.6-1.2,3.3-1.7,5.4-1.6c2,0.1,3.8,0.8,5.2,2.2c1.4,1.3,2.1,3.4,1.9,6l-0.2,3.9L839.8,327.7z"/>
	</g>
</g>
</svg>
