<?xml version="1.0" encoding="utf-8"?>
<!-- Generator: Adobe Illustrator 27.0.0, SVG Export Plug-In . SVG Version: 6.00 Build 0)  -->
<svg version="1.1" id="Layer_1" xmlns="http://www.w3.org/2000/svg" xmlns:xlink="http://www.w3.org/1999/xlink" x="0px" y="0px"
	 viewBox="0 0 1200 1200" style="enable-background:new 0 0 1200 1200;" xml:space="preserve">
<style type="text/css">
	.st0{fill:#030205;}
	.st1{fill:#FFAAA8;}
	.st2{fill:#241233;}
	.st3{fill:#F0F0F0;}
	.st4{fill:#7437A0;}
	.st5{opacity:0.15;}
	.st6{fill:#FAFAFA;}
	.st7{opacity:0.25;fill:#FFFFFF;}
	.st8{fill:#E1E1E1;}
	.st9{fill:#ECECEC;}
	.st10{opacity:0.15;fill:#FFFFFF;}
	.st11{opacity:0.2;}
	.st12{opacity:0.6;fill:#FFFFFF;}
	.st13{opacity:0.1;fill:#7437A0;}
	.st14{opacity:0.2;fill:#7437A0;}
	.st15{opacity:0.1;}
	.st16{opacity:0.3;}
	.st17{fill:#C76696;}
	.st18{fill:#FF90C5;}
	.st19{fill:#F99191;}
</style>
<g id="Character_00000082336717657579545320000004683991543607443899_">
	<g id="Bottom_00000151516812419723223440000004110175855277577604_">
		<g id="Bottom_00000006693718480195435110000009686402143796522389_">
			<g>
				<polygon class="st0" points="593.2,1028.2 604.3,1022.5 593.2,1019.5 				"/>
				<path class="st0" d="M705.2,1047.3c0,0-133.8-58.2-135.3-49.2c-0.3,2-0.2,3.8,0.2,5.4c-0.1-0.2-0.3-0.3-0.4-0.5l2.7,16.8
					c0,0,9.6,8,20.8,8.4c0-0.8,0-5.8,0-8.7c3.6,1.5,7.4,3.2,11.8,6.1c8.6,5.5,14.2,15.4,23.5,26.7c6.7,8.3,18.5,12,36,14.2
					c18.8,2.4,35.2-1.5,39.8-6.6C707.8,1055.8,705.8,1048.4,705.2,1047.3z"/>
				<path class="st1" d="M701.4,1044.2c-1.3-1.3-6.1-6.5-12.6-12.1c-5.7-4.9-12.3-11.1-19.4-16.1c-2.8-2-7.2-5.2-9.6-7.8
					c-2.4-2.5-4.6-5-6.7-7.7c-6.5-8.3-11.9-17.6-16.5-27.1c-2.2-4.5-6.1-14.5-5.3-33.2c1.2-28.3,3.3-38.5,3.1-56.8l-63.2,9.7
					c2,10.1,4.3,32.8,5.5,44.4c1.8,17.6,4.3,19.2-2.2,36.8c-1.9,5.2-4.8,10.2-5,15.7c-0.3,9,6.9,16.7,14.8,20.9
					c6.6,3.5,14.1,5,20.5,8.8c6.7,4,12,10.1,16.8,16.1c4.6,5.7,8.3,12.4,14.6,16.4c7,4.4,13.7,5.7,21.8,7.2c9.3,1.7,21.2,1.8,29.1,1
					C700.7,1059.1,710.9,1053.9,701.4,1044.2z"/>
				<g>
					<g>
						<path class="st2" d="M693.7,1034.5c-5.8-4.8-14-11.6-23.9-19.2c-2.2-1.1-11-3-20.6,2.2c-19.6,10.7-22.7,25.6-22.7,25.6
							s4.4,9.9,16.3,13.9c23,9.7,63.7,5.8,64-4.7C706.9,1045.6,700.7,1040.3,693.7,1034.5z M575.6,970.5c0,0-1.3,3.5-4.6,10.3
							c-3.4,6.9-3.9,13.6,0.5,20.4c5.9,8.9,13,11.6,20.2,13.3C597.7,994.4,583.6,974.7,575.6,970.5z"/>
					</g>
				</g>
			</g>
			<g>
				<path class="st0" d="M461,1022c3.6,6.1-1.7,28.8-1.1,45.1c0.5,14.8,3.1,37.8-0.9,55c-4.1,17.6-19.1,36-39.1,19.5
					c-12.4-10.3-17.2-22.4-18.5-43.7c-0.9-14.8,5.4-35.1,10.8-53c6.3-21,8.8-32.3,8.8-32.3L461,1022z"/>
				<path class="st1" d="M421.5,912.4c-2.1,34.4,1.4,58.6,1.2,80.6c-0.4,10.3-1.3,18.9-3.7,29.7c-3.2,14-8.5,33.4-10.7,42.5
					c-3.1,12.7-5.5,20.6-1.4,35c0.3,1.1,0.8,2.2,1.4,3.2c5.9,11.9,21.3,21.1,26.4,19.7c1.4,2.3,4.9,3.8,8.7,3.2
					c0.6-0.1,1.1-0.2,1.7-0.4c0.6-0.2,1.1-0.4,1.7-0.6c3.4-1.6,6.6-4.9,8.5-10.6c0.3-1,0.6-2,0.9-3.1c4-17.6,1.6-29.1,1.4-36.1
					c-0.2-8,0.4-18.2,1.4-31.1c1-12.9,4.8-53.3,9.7-72.6c3.6-13.5,8.1-30.3,12.8-48.3L421.5,912.4z"/>
				<path class="st2" d="M404.9,1081.7c12.4-5.2,48.1-5.2,53.5,12.2c-0.2,16.4-0.3,27.5-10.9,41.5c-14.1,18.6-31.6-1.8-38.2-14.6
					C402.6,1107.9,403,1090.5,404.9,1081.7z"/>
			</g>
			<path class="st2" d="M480.8,428.4c-18,30.8-42.3,73.7-44.5,143.5c-3,93-4.9,159.7-5.6,170.9c-0.7,11.2-8.3,31.6-15.5,86.7
				c-7.2,55.1,0.7,160.5,0.7,160.5s6.2,12.5,27.3,15c19.4,2.3,28.6-6.8,28.6-6.8s30.8-147.5,39.1-180.6
				c8.3-33.1,36.6-177.8,36.6-177.8l10.3,89.1c0,0-6.8,30.3-2.1,79c4.6,48.6,20,142.4,20,142.4s8.8,9.3,29.5,8.5
				c18.9-0.7,28.5-11.2,28.5-11.2s18.1-185.1,19.6-240.1c1.5-54.9,0-192.1-15.1-273.9L480.8,428.4z"/>
			<path class="st0" d="M564.3,551.9l-16.9,87.9l10.3,89.1l0.4-84.6l16.8-83.8c13.3-2.8,47.6-26,50.5-48.3
				C606.9,541.2,564.3,551.9,564.3,551.9z M465.2,882.3c-5.5,28.5-10.7,57.2-15.5,85.9c7-28.2,13.7-56.5,19.9-84.9
				C476,854.9,482,826.5,488,798c5.6-28.6,12.9-93.4,16.1-122.4c3.2-28.9,5.7-57.9,7.9-86.9c-4.4,28.8-8.4,57.6-12.4,86.3
				c-4.1,28.8-11.6,93.4-17.3,121.8C476.4,825.2,470.6,853.8,465.2,882.3z M627.8,676.2c0.2,12.6,0.6,25.3,0.1,37.8
				c-0.6,12.5-1.7,25.2-2.7,37.8l-2.9,37.8c-2,25.2-3.7,50.5-5.1,75.8c3.7-25.1,6.9-50.2,9.6-75.4c2.8-25.2,5.4-50.3,6.9-75.8
				c0.6-25.6-0.9-50.8-2.5-76.2c-1.7-25.3-4-50.5-7.2-75.7l2.7,75.9C627.1,650.9,627.5,663.6,627.8,676.2z"/>
		</g>
	</g>
	<g id="Top_00000017510228680328487200000010916369253662403227_">
		<path class="st0" d="M490,115.5c-18,9.6-19.8,24.5-20.7,60.9c-1.6,66-21.8,141.1-21.8,141.1l150.9,1.7l8.1-151.1
			c0,0,13.4-16.2,12.8-33.6c-0.6-17.4-10.1-40.5-42.1-48.9C550.5,78.7,498.7,81.4,490,115.5z"/>
		<g>
			<path class="st1" d="M774.9,303.4c-8.3-36.8-29.3-87.7-39.1-111.9c-2.8-6.8-6.2-21.7-7.4-27.5c-2.7-12.4-5.1-19.6-10.4-28.9
				c-3.5-6.1-6.7-12-16.1-20.3c-2.8-2.4-6.5-2.3-7.7-1c-3-2.8-4.8-4.4-8-5.4c-2.5-0.8-5.2-0.4-7.8-0.5c-4.2-0.2-6.6-2.7-9.3-5.6
				c-1.3-1.4-2.6-3-4.4-3.6c-2.9-1.1-4.3,0.9-4.9,3.3c-0.9,3.5-0.4,7.3,0.9,10.7c2.1,5.5,5.6,9.6,8.4,14.7
				c4.3,7.8,10.7,17.6,10.3,26.7c-0.1,1.8-0.8,5.6-3.1,3.2c-3-3.2-5.8-6.8-9.3-9.4c-3.5-2.7-8-4.5-12.4-3.6
				c-1.3,0.2-2.6,0.8-3.5,1.9c-1.1,1.5-0.4,2.6,0.5,3.8c1,1.2,1.7,2.6,2.5,4c1.6,2.8,3.2,5.6,4.9,8.5c9.8,16.4,14.1,23.2,28.2,34.4
				c2.2,1.8,9.3,5.9,14.3,20.3c5,14.4,8.8,60.1,8.8,60.1s-6.4-1.5-49-11.7c-34.7-8.3-43.1-8.6-66.5-11.4l30.2,71.9
				c0,0,50,9.1,99.3,16.9C762.1,348.6,784.9,347.6,774.9,303.4z"/>
			<path class="st3" d="M707.4,250.7l-2-14.3c0,0,10.1,4.6,25,1.6c14.9-3,21-9.7,21-9.7l4.7,12c0,0-10.2,7.1-23.7,9.9
				C719,252.9,707.4,250.7,707.4,250.7z"/>
			<path class="st4" d="M595.8,253.2c20.5,1,40.3,4.6,69.5,11.4c26.1,6.1,44.2,10.9,44.2,10.9l-3.5-30.6c0,0,8.8,5.6,26.8,2.4
				c18-3.2,22.6-10.7,22.6-10.7s18.5,50.1,22.7,74.3c3.7,21.4-1.9,40.1-31.1,37.5c-35.9-3.2-128-19.5-128-19.5L595.8,253.2z"/>
			<path class="st5" d="M709.6,275.6c1.4,19.9,5.4,34.9,12.7,43.7c-12.5-6.9-20.3-26.4-20.8-45.8L709.6,275.6z"/>
		</g>
		<g id="Telescope_00000131360703540899985180000006510689442685120924_">
			<path class="st6" d="M636.8,144.6c-1.6,0.6-3,2.1-3.6,4.2c-1.3,4.4,0.6,9.9,4.2,12.5c1.8,1.2,3.7,1.5,5.3,0.9
				c0.5-0.2,5.7-2.2,6.2-2.4c1.6-0.6,3-2.1,3.6-4.2c1.3-4.4-0.6-9.9-4.2-12.5c-1.8-1.2-3.7-1.5-5.3-0.9
				C642.4,142.4,637.3,144.4,636.8,144.6z"/>
			<path class="st4" d="M636.8,144.6c-1.6,0.6-3,2.1-3.6,4.2c-1.3,4.4,0.6,9.9,4.2,12.5c1.8,1.2,3.7,1.5,5.3,0.9
				c0.5-0.2,5.7-2.2,6.2-2.4c1.6-0.6,3-2.1,3.6-4.2c1.3-4.4-0.6-9.9-4.2-12.5c-1.8-1.2-3.7-1.5-5.3-0.9
				C642.4,142.4,637.3,144.4,636.8,144.6z"/>
			<path class="st7" d="M636.8,144.6c-1.6,0.6-3,2.1-3.6,4.2c-1.3,4.4,0.6,9.9,4.2,12.5c1.8,1.2,3.7,1.5,5.3,0.9
				c0.5-0.2,5.7-2.2,6.2-2.4c1.6-0.6,3-2.1,3.6-4.2c1.3-4.4-0.6-9.9-4.2-12.5c-1.8-1.2-3.7-1.5-5.3-0.9
				C642.4,142.4,637.3,144.4,636.8,144.6z"/>
			<path class="st4" d="M643.5,158.9c3.7,2.5,7.7,1,9-3.3c1.3-4.4-0.6-9.9-4.2-12.5c-3.7-2.5-7.7-1-9,3.3
				C638,150.8,639.9,156.4,643.5,158.9z"/>
			<path class="st0" d="M644.5,143c-1.4,0.5-2.5,1.8-3.1,3.6c-1.1,3.7,0.5,8.5,3.6,10.7c1.5,1.1,3.2,1.3,4.5,0.8
				c0.5-0.2,51.5-16.4,51.9-16.5c1.4-0.5,2-4.5,2.6-6.3c1.1-3.7-0.5-8.5-3.6-10.7c-1.6-1.1-4.3-3.8-5.7-3.3
				C694.2,121.4,644.9,142.8,644.5,143z"/>
			<g>
				<g id="Lens_00000163777776845786425730000007587486096226998715_">
					<g>
						<g>
							<path class="st8" d="M681.1,119.9c-2.9,1.1-5.2,3.6-6.4,7.5c-2.3,7.7,1,17.5,7.5,22c3.2,2.2,6.5,2.6,9.3,1.7
								c1-0.3,100.5-31.7,101.4-32c2.9-1.1,4.1-9.2,5.3-13c2.3-7.7-1-17.5-7.5-22c-3.2-2.2-8.8-7.8-11.7-6.8
								C778.1,77.6,682,119.6,681.1,119.9z"/>
							<path class="st8" d="M780.8,116.6c8.7,6,18.2,2.4,21.3-7.9c3.1-10.3-1.4-23.5-10-29.5c-8.7-6-18.2-2.4-21.3,7.9
								C767.7,97.5,772.2,110.7,780.8,116.6z"/>
						</g>
					</g>
				</g>
				<g>
					<g id="XMLID_00000096767286264745904690000001059585319594104231_">
						<path class="st0" d="M779.6,118.4c3.1,2.2,6.4,3.2,9.4,3.1c0.1,0,0.1,0,0.2,0l0.3,0c0.1,0,0.2,0,0.3,0l0.1,0l4.9-0.2
							c0,0-0.1,0-0.1,0c-0.1,0-0.1,0-0.2,0c-0.2,0-0.4,0-0.7,0c-0.5,0-1-0.1-1.4-0.2c-2.5-0.4-5-1.5-7.5-3.2
							c-1.2-0.9-2.4-1.8-3.5-2.9c-7.9-7.8-11.6-21.2-8.4-31.8c0.8-2.9,2.1-5.3,3.8-7.2c0.1-0.1,0.2-0.3,0.3-0.4
							c0.1-0.1,0.2-0.2,0.3-0.3c0,0,0-0.1,0.1-0.1l0.7-0.7c0.1-0.1,0.2-0.2,0.3-0.2l-4.1,3.3l0,0c-0.4,0.3-0.7,0.6-1.1,1
							c-2,1.9-3.5,4.6-4.5,7.8c-3.1,10.3,0.7,23.2,8.6,30.2c0.3,0.3,0.7,0.6,1,0.9c0.1,0,0.1,0.1,0.1,0.1
							C778.8,117.8,779.2,118.1,779.6,118.4z"/>
						<g>
							<path class="st4" d="M802.8,112.2c10.8,7.4,22.7,3,26.6-9.8c3.9-12.9-1.7-29.3-12.5-36.7c-10.8-7.4-22.7-3-26.6,9.8
								C786.4,88.3,792,104.8,802.8,112.2z"/>
							<path class="st6" d="M784.4,119c2,1.4,4,2.3,6.1,2.9c1.2,0.3,4.2,0.7,4.6,0.7c0.4,0,1.8-0.1,2.2-0.1c0.4-0.1,0.7-0.1,1.1-0.2
								c0.6-0.1,1.2-0.3,1.8-0.5l0,0l0,0c0,0,0.1,0,0.1,0l0.1,0l0.3-0.1l0.2-0.1l17.7-6.6c-0.1,0-0.3,0.1-0.4,0.1c0,0,0,0,0,0
								c-0.2,0.1-0.3,0.1-0.5,0.2c-0.4,0.1-0.8,0.2-1.2,0.2c-0.5,0.1-1,0.2-1.6,0.2c-3.8,0.3-7.9-0.9-11.8-3.6
								c-1.1-0.7-2.1-1.6-3.1-2.5c-8.7-8.2-12.9-22.6-9.4-34.2c1.2-4.1,3.3-7.4,5.9-9.6c0.3-0.2,0.5-0.5,0.8-0.7l0,0
								c0.3-0.2,0.5-0.4,0.8-0.6c0.3-0.2,0.6-0.4,0.8-0.5c0.2-0.1,0.5-0.3,0.7-0.4c0.2-0.1,0.4-0.2,0.6-0.3c0.2-0.1,0.4-0.2,0.6-0.3
								l-17.8,6.6l0,0l-0.8,0.3c-4.6,1.9-8.4,6.1-10.3,12.3c-3.3,11,0.3,24.7,8.3,33.1c0.4,0.4,0.8,0.8,1.2,1.2
								C782.3,117.5,783.3,118.3,784.4,119z"/>
						</g>
						<path id="XMLID_00000121278685939533395130000012645409822463500465_" class="st9" d="M833.8,60.4c10.2,7,15.5,22.6,11.8,34.7
							c-1.1,3.5-2.8,6.4-4.9,8.5c-1.5,1.5-3.3,2.6-5.2,3.3l0,0c0,0,0,0,0,0l-14.8,5.6l-0.4,0.1c-0.7,0.2-1.4,0.4-2.2,0.6
							c-4,0.7-8.4-0.3-12.7-3.2c-10.2-7-15.5-22.6-11.8-34.7c1.5-5.1,4.4-8.7,7.9-10.8c0.6-0.4,1.2-0.7,1.8-0.9l0.1,0l0.7-0.3
							l14.5-5.5l0,0C823.4,56.1,828.7,56.9,833.8,60.4z"/>
					</g>
					<g>
						<g>
							<path class="st6" d="M813.4,58c-4.8,1.8-8.8,6.1-10.7,12.5c-3.9,12.9,1.7,29.3,12.5,36.8c5.3,3.6,10.8,4.4,15.6,2.8
								c1.6-0.6,11.8-4.6,13.3-5.1c4.8-1.8,8.8-6.1,10.7-12.5c3.9-12.9-1.7-29.3-12.5-36.8c-5.3-3.7-10.9-4.4-15.7-2.7
								C825,53.4,814.9,57.4,813.4,58z"/>
							<path class="st4" d="M784.4,119c2,1.4,4,2.3,6.1,2.9c1.2,0.3,4.2,0.7,4.6,0.7c0.4,0,1.8-0.1,2.2-0.1c0.4-0.1,0.7-0.1,1.1-0.2
								c0.6-0.1,1.2-0.3,1.8-0.5l0,0l0,0c0,0,0.1,0,0.1,0l0.1,0l0.3-0.1l0.2-0.1l17.7-6.6c-0.1,0-0.3,0.1-0.4,0.1c0,0,0,0,0,0
								c-0.2,0.1-0.3,0.1-0.5,0.2c-0.4,0.1-0.8,0.2-1.2,0.2c-0.5,0.1-1,0.2-1.6,0.2c-3.8,0.3-7.9-0.9-11.8-3.6
								c-1.1-0.7-2.1-1.6-3.1-2.5c-8.7-8.2-12.9-22.6-9.4-34.2c1.2-4.1,3.3-7.4,5.9-9.6c0.3-0.2,0.5-0.5,0.8-0.7l0,0
								c0.3-0.2,0.5-0.4,0.8-0.6c0.3-0.2,0.6-0.4,0.8-0.5c0.2-0.1,0.5-0.3,0.7-0.4c0.2-0.1,0.4-0.2,0.6-0.3c0.2-0.1,0.4-0.2,0.6-0.3
								l-17.8,6.6l0,0l-0.8,0.3c-4.6,1.9-8.4,6.1-10.3,12.3c-3.3,11,0.3,24.7,8.3,33.1c0.4,0.4,0.8,0.8,1.2,1.2
								C782.3,117.5,783.3,118.3,784.4,119z"/>
							<path class="st7" d="M784.4,119c2,1.4,4,2.3,6.1,2.9c1.2,0.3,4.2,0.7,4.6,0.7c0.4,0,1.8-0.1,2.2-0.1c0.4-0.1,0.7-0.1,1.1-0.2
								c0.6-0.1,1.2-0.3,1.8-0.5l0,0l0,0c0,0,0.1,0,0.1,0l0.1,0l0.3-0.1l0.2-0.1l17.7-6.6c-0.1,0-0.3,0.1-0.4,0.1c0,0,0,0,0,0
								c-0.2,0.1-0.3,0.1-0.5,0.2c-0.4,0.1-0.8,0.2-1.2,0.2c-0.5,0.1-1,0.2-1.6,0.2c-3.8,0.3-7.9-0.9-11.8-3.6
								c-1.1-0.7-2.1-1.6-3.1-2.5c-8.7-8.2-12.9-22.6-9.4-34.2c1.2-4.1,3.3-7.4,5.9-9.6c0.3-0.2,0.5-0.5,0.8-0.7l0,0
								c0.3-0.2,0.5-0.4,0.8-0.6c0.3-0.2,0.6-0.4,0.8-0.5c0.2-0.1,0.5-0.3,0.7-0.4c0.2-0.1,0.4-0.2,0.6-0.3c0.2-0.1,0.4-0.2,0.6-0.3
								l-17.8,6.6l0,0l-0.8,0.3c-4.6,1.9-8.4,6.1-10.3,12.3c-3.3,11,0.3,24.7,8.3,33.1c0.4,0.4,0.8,0.8,1.2,1.2
								C782.3,117.5,783.3,118.3,784.4,119z"/>
							<path id="XMLID_00000121960779673535790490000012340243892140665996_" class="st4" d="M833.8,60.4
								c10.2,7,15.5,22.6,11.8,34.7c-1.1,3.5-2.8,6.4-4.9,8.5c-1.5,1.5-3.3,2.6-5.2,3.3l0,0c0,0,0,0,0,0l-14.8,5.6l-0.4,0.1
								c-0.7,0.2-1.4,0.4-2.2,0.6c-4,0.7-8.4-0.3-12.7-3.2c-10.2-7-15.5-22.6-11.8-34.7c1.5-5.1,4.4-8.7,7.9-10.8
								c0.6-0.4,1.2-0.7,1.8-0.9l0.1,0l0.7-0.3l14.5-5.5l0,0C823.4,56.1,828.7,56.9,833.8,60.4z"/>
							<path id="XMLID_00000023274914152490577490000018151733252958025130_" class="st10" d="M833.8,60.4
								c10.2,7,15.5,22.6,11.8,34.7c-1.1,3.5-2.8,6.4-4.9,8.5c-1.5,1.5-3.3,2.6-5.2,3.3l0,0c0,0,0,0,0,0l-14.8,5.6l-0.4,0.1
								c-0.7,0.2-1.4,0.4-2.2,0.6c-4,0.7-8.4-0.3-12.7-3.2c-10.2-7-15.5-22.6-11.8-34.7c1.5-5.1,4.4-8.7,7.9-10.8
								c0.6-0.4,1.2-0.7,1.8-0.9l0.1,0l0.7-0.3l14.5-5.5l0,0C823.4,56.1,828.7,56.9,833.8,60.4z"/>
							<path class="st4" d="M813.4,58c-4.8,1.8-8.8,6.1-10.7,12.5c-3.9,12.9,1.7,29.3,12.5,36.8c5.3,3.6,10.8,4.4,15.6,2.8
								c1.6-0.6,11.8-4.6,13.3-5.1c4.8-1.8,8.8-6.1,10.7-12.5c3.9-12.9-1.7-29.3-12.5-36.8c-5.3-3.7-10.9-4.4-15.7-2.7
								C825,53.4,814.9,57.4,813.4,58z"/>
							<path class="st7" d="M813.4,58c-4.8,1.8-8.8,6.1-10.7,12.5c-3.9,12.9,1.7,29.3,12.5,36.8c5.3,3.6,10.8,4.4,15.6,2.8
								c1.6-0.6,11.8-4.6,13.3-5.1c4.8-1.8,8.8-6.1,10.7-12.5c3.9-12.9-1.7-29.3-12.5-36.8c-5.3-3.7-10.9-4.4-15.7-2.7
								C825,53.4,814.9,57.4,813.4,58z"/>
							<path class="st4" d="M828.2,102.2c10.8,7.4,22.7,3,26.6-9.8c3.9-12.9-1.7-29.3-12.5-36.8c-10.8-7.4-22.7-3-26.6,9.8
								C811.8,78.3,817.4,94.8,828.2,102.2z"/>
							<path class="st11" d="M846.8,99.7c-5,5-11.6,1.4-14.2-0.4c-10.1-6.9-15.5-22.9-11.9-34.9c0.9-3,2.3-5.4,4-7.1
								c5-5,11.6-1.4,14.2,0.4c10.1,6.9,15.5,22.9,11.9,34.9C849.9,95.6,848.5,98,846.8,99.7L846.8,99.7z"/>
							<path class="st4" d="M832.6,60.1c-1.5-1.1-4.5-2.8-7.7-2.9c-0.1,0.1-0.1,0.1-0.2,0.2c-1.7,1.7-3.1,4.1-4,7.1
								c-3.6,12,1.8,27.9,11.9,34.9c1.5,1.1,4.5,2.8,7.7,2.9c0.1-0.1,0.1-0.1,0.2-0.2c1.7-1.7,3.1-4.1,4-7.1
								C848.1,83,842.7,67,832.6,60.1z"/>
							<path class="st12" d="M832.6,60.1c-1.5-1.1-4.5-2.8-7.7-2.9c-0.1,0.1-0.1,0.1-0.2,0.2c-1.7,1.7-3.1,4.1-4,7.1
								c-3.6,12,1.8,27.9,11.9,34.9c1.5,1.1,4.5,2.8,7.7,2.9c0.1-0.1,0.1-0.1,0.2-0.2c1.7-1.7,3.1-4.1,4-7.1
								C848.1,83,842.7,67,832.6,60.1z"/>
							<path class="st13" d="M820.6,64.9c-3.3,11.9,2.1,27.5,12,34.4c0,0,0,0,0,0c3.7-0.9,6.8-3.9,8.3-8.7
								c2.6-8.6-1.2-19.6-8.4-24.5C828.5,63.3,824.1,63,820.6,64.9z"/>
							<path class="st14" d="M819.8,75c0.5,6.1,2.6,12.2,6,17.2c4.4,2.4,9,0.4,10.5-4.8c1.7-5.5-0.7-12.6-5.4-15.8
								C826.5,68.6,821.7,70.2,819.8,75z"/>
							<path class="st12" d="M822.9,71.5c-1-6.6,2.7-11.5,5-11.4c2.3,0.1,17.4,10.4,15,30.7c0,0-0.4-12.9-7.3-21.3
								C829.1,61.5,823.3,65.1,822.9,71.5z"/>
						</g>
					</g>
					<path class="st15" d="M781.3,116.6C781.3,116.6,781.3,116.6,781.3,116.6l18.4-6.9l0,0l2.3-2.5l9-3.4c0.4,0.4,0.8,0.8,1.2,1.2
						l13.2-4.9c0.9,0.8,1.8,1.5,2.7,2.2c0.3,0.2,0.7,0.5,1,0.7c2.9,1.8,5.9,2.8,8.8,2.9c1.9,0.1,3.7-0.1,5.4-0.7c0,0-0.1,0-0.1,0.1
						c-2.9,1.1-11.1,4.3-12.5,4.8c-1.7,0.6-3.5,0.9-5.4,0.8l-1.1,0.4c-2,2-4.4,3.4-7.1,4.1c0.1,0,0.1,0,0.2,0c0.2,0,0.4-0.1,0.5-0.2
						c0,0,0,0,0,0c0.1,0,0.3-0.1,0.4-0.1l-17.7,6.6l-0.2,0.1l-0.3,0.1l-0.1,0c0,0,0,0-0.1,0l0,0l0,0c-0.6,0.2-1.2,0.4-1.8,0.5
						c-0.3,0.1-0.7,0.1-1.1,0.2c-0.3,0.1-1.8,0.1-2.2,0.1c-0.4,0-3.4-0.3-4.6-0.7c0,0,0,0,0,0c-1.5-0.4-3-1.1-4.5-2
						c-0.5-0.3-1-0.6-1.5-1C783.3,118.3,782.3,117.5,781.3,116.6z"/>
				</g>
			</g>
		</g>
		<path id="Chest_00000049189868529916114600000003243253663573722538_" class="st6" d="M460.9,463c1.9-14.1,11.8-16.2,7-50
			c-2.4-16.7-10.8-60-10.8-60s28.8-22.2,19.5-86.9l31-12.5l16.9-6l47.2,2l24.2,6.6c8.3,7.1,23.5,18.4,35.7,35.7
			c17.7,24.9,20.8,52.4,2.8,72.9c-0.2,4,0.5,65.7,5.2,80.7c1.8,6,4.4,14.1,0.5,22.1C622.7,496.1,519.7,525.1,460.9,463z"/>
		<g>
			<g>
				<path class="st4" d="M571.6,249.6l24.2,3.6c23.2,17.5,50.8,49.2,52.4,73.5c1.5,24.3-10.8,40.8-10.8,40.8s-0.3,49.5,5.3,75.6
					c5.7,26.1,11.9,96.1,11.9,96.1s0.5,4.4-18.9,9.8c-5.9-33.5-20.7-156.6-19.9-186.1C616.7,333.5,617.2,286.8,571.6,249.6z"/>
				<path class="st16" d="M571.6,249.6l24.2,3.6c23.2,17.5,50.8,49.2,52.4,73.5c1.5,24.3-10.8,40.8-10.8,40.8s-0.3,49.5,5.3,75.6
					c5.7,26.1,11.9,96.1,11.9,96.1s0.5,4.4-18.9,9.8c-5.9-33.5-20.7-156.6-19.9-186.1C616.7,333.5,617.2,286.8,571.6,249.6z"/>
				<path class="st11" d="M619.5,376.8c1.9-7.8,4-15.6,6.2-23.4c2.2-7.8,4.2-15.6,6.1-23.4c0.9-3.9,1.8-7.8,2.2-11.7
					c0.6-3.7-2-6.8-4.6-9.7c-5.4-5.7-11.9-10.6-18.6-15l-0.6-0.4l0.1-0.7c0.8-4.1,0.6-8.6-0.1-12.8c-0.7-4.2-2.2-8.4-4.4-12.1
					c-2.4-3.6-5.6-6.7-9.1-9.3c-3.5-2.6-7.4-4.8-11.4-6.7c4.2,1.5,8.2,3.5,11.9,6c3.7,2.4,7.2,5.5,9.8,9.2c2.5,3.8,4.2,8.1,5.1,12.5
					c0.9,4.5,1,9,0.3,13.6l-0.5-1.1c6.8,4.5,13.5,9.2,19.2,15.2c1.4,1.5,2.7,3.2,3.8,5c0.3,0.4,0.5,1,0.7,1.5c0.2,0.5,0.5,1,0.5,1.6
					c0.3,1.2,0.2,2.3,0.1,3.3c-0.5,4.2-1.4,8.1-2.4,12c-2,7.9-4.4,15.5-6.8,23.3C624.5,361.4,622,369.1,619.5,376.8z"/>
			</g>
			<g>
				<path class="st4" d="M507.6,253.6c0,0,10.2,13.1,23.6,43.8c13.5,30.7,26.4,58.7,26.2,87.2c-0.2,28.5-9.5,175.7-9.5,175.7
					s-40.8,6.2-77.8-8.7l3-57l-14,54.3c0,0-17.7-6.3-24.2-12.2c9.6-59.3,31.2-87.4,32.3-109.3c0.7-15-12-56.7-14.5-94.3
					c-2.1-32.7,4.5-65.8,4.5-65.8L507.6,253.6z"/>
				<path class="st16" d="M507.6,253.6c0,0,10.2,13.1,23.6,43.8c13.5,30.7,26.4,58.7,26.2,87.2c-0.2,28.5-9.5,175.7-9.5,175.7
					s-40.8,6.2-77.8-8.7l3-57l-14,54.3c0,0-17.7-6.3-24.2-12.2c9.6-59.3,31.2-87.4,32.3-109.3c0.7-15-12-56.7-14.5-94.3
					c-2.1-32.7,4.5-65.8,4.5-65.8L507.6,253.6z"/>
				<path class="st11" d="M552,393c-2.3-7.3-6.6-13.6-11.2-19.7c-4.6-6.1-9.6-11.8-14.7-17.4c-2.5-2.8-5.1-5.6-7.7-8.4l-3.9-4.2
					c-0.7-0.7-1.3-1.4-2-2.2c-0.2-0.2-0.3-0.3-0.5-0.7c-0.2-0.3-0.3-0.7-0.5-1.1c-0.2-0.7-0.2-1.3-0.2-1.9c0.5-4.4,2.3-7.8,4-11.4
					c1.8-3.4,3.8-6.7,5.9-10l0.2,1.9l-11.7-11.8l-5.8-5.9l-1.4-1.5l-0.7-0.8c-0.2-0.3-0.4-0.3-1-1.2c-0.4-1.1-0.3-1.8-0.3-2.6
					c0-0.7,0.1-1.5,0.2-2.2c0.9-5.6,2.4-11,4-16.3c1.6-5.3,3.3-10.6,5.2-15.9c-1.3,5.4-2.7,10.8-3.9,16.2
					c-1.2,5.4-2.5,10.8-3.1,16.2c-0.1,1.2-0.2,2.9,0.1,3.5c-0.2-0.3,0.1,0.2,0.4,0.4l0.8,0.7l1.5,1.4l6,5.8l12,11.7l0.9,0.8
					l-0.7,1.1c-2,3.2-3.9,6.5-5.6,9.8c-1.6,3.3-3.4,6.9-3.8,10.1c0,0.3,0,0.7,0.1,0.9c0,0.1,0.1,0.1,0.1,0.2c0,0.1,0.2,0.3,0.3,0.5
					c0.5,0.7,1.2,1.4,1.8,2.1l3.9,4.2c2.6,2.8,5.1,5.7,7.7,8.6c5,5.8,9.7,11.8,14.1,18.2c2.2,3.2,4.1,6.5,5.9,9.9
					C549.9,385.7,551.3,389.3,552,393z"/>
			</g>
		</g>
		<g id="Head_00000168116172606542735240000006310374505488387498_">
			<g id="Head_00000010307842371942693490000009444942257837348497_">
				<g id="Head_00000126304539415372725740000013378888689208688307_">
					<g id="XMLID_00000176726877404666467980000008684490022292268470_">
						<g id="XMLID_00000031894690130449105830000006874809118861952410_">
							<path id="XMLID_00000181791711922211425510000017074814299841116347_" class="st1" d="M506.6,212.3c-6.7,2-13.5-0.6-18.2-4.7
								c-10.3-9.1-12.3-19.2-8.8-26.6c2.9-6,11.1-10.6,17.6-7.5c7,3.3,7.5,6.6,10.5,11c3.1,4.4,8.9,0,4.7-18.2
								c11.9-7.4,7.5-28.3,13.4-37.6c9.1-14.7,27.1-13.2,33.2-10.6c4.6-4.7,14.6-7.9,23.8-4.2c9,3.6,15.7,12.5,22.4,45
								c6.8,33.1,3.5,56.1-3.4,64c-4.8,5.5-16.8,10.6-28.6,11.2l-1.4,18.2c0,0,39.1,30.7-4.6,32.4c-32.8,1.2-56.5-32-56.5-32
								l2.6-46.3C513.2,206.2,512.9,210.4,506.6,212.3z"/>
						</g>
					</g>
				</g>
				<g id="XMLID_00000117651881137802712370000002803381143943087796_">
					<path id="XMLID_00000039094259959896131620000013092402978421478581_" class="st0" d="M549.2,151.3l-11.8,6.3
						c-1.7-3.4-0.4-7.6,2.9-9.3C543.5,146.6,547.5,147.9,549.2,151.3z"/>
					<path id="XMLID_00000016767149595574791080000009442717987652296881_" class="st0" d="M596.2,141.8l-13.3-2
						c0.4-3.7,3.7-6.3,7.4-5.7C594,134.6,596.6,138,596.2,141.8z"/>
					<path id="XMLID_00000029038954368031979700000010474806532416466578_" class="st17" d="M555,196l18.9,2.8
						c-0.6,5.3-5.3,9-10.5,8.2C558.2,206.3,554.4,201.4,555,196z"/>
					<path class="st18" d="M567,206.9c-1.2-4.3-5.2-7.5-9.8-7.3c-0.6,0-1.3,0.1-1.9,0.3c1,3.7,4.1,6.6,8.1,7.2
						C564.6,207.3,565.9,207.2,567,206.9z"/>
					<path class="st0" d="M595.3,156.3c1.4,2.7,0.4,6-2.3,7.4c-2.7,1.4-5.9,0.4-7.4-2.3c-1.4-2.7-0.4-6,2.3-7.4
						C590.6,152.6,593.9,153.6,595.3,156.3z"/>
					<path class="st0" d="M556.8,165.8c0.4,1.1-3.2-1.1-6.9-0.5c-4.7,0.7-7.5,5.3-7,2.3c0.4-2.7,2-5.2,6.5-5.8
						C552.9,161.3,555.6,162.7,556.8,165.8z"/>
					<path id="XMLID_00000176040373030147577650000002369038338436686257_" class="st19" d="M567.8,152.2l6.7,35l18.7-7.8
						C586.9,166.1,576,157.9,567.8,152.2z"/>
				</g>
			</g>
			<path class="st19" d="M573.1,234c-17,1.3-37.9-2.9-45.2-13.1c4.7,11.4,17.3,16.2,27.2,17.8c12,2,17.6,1.4,17.6,1.4L573.1,234z"/>
		</g>
		<g id="Arm_00000103238070509615934730000016757289136945431940_">
			<g>
				<path class="st19" d="M430.7,550.4c-3.9-4.1-8.8-7.6-10.5-13.2c-0.9-2.9-0.7-6.2,1.2-8.6c0.4-0.5,0.8-1,1-1.6
					c0.1-0.5,0-1-0.1-1.5c-0.4-2.1-0.6-4.4,0.3-6.4c0.8-1.7,2.2-3,4-3.6c-1.1-3.1-1.1-6.5-0.1-9.7c1.2-3.7,4.9-6.7,7.5-2.6
					c1.3,2,2.2,4.2,3,6.4c2,5.5,3.3,11.3,4,17c0.7,6.1,2.6,23.2-6.8,24.2C433.3,550.9,431.3,551,430.7,550.4z"/>
				<path class="st1" d="M466,270.7c-36.1,7.6-39.4,19-60.4,49.2c-20.6,29.7-47.1,71.3-53.5,85.8c-7.9,18.1-9.6,25,10,43.6
					c10.1,9.6,24.1,21,38.4,33.9c11.3,10.2,24.8,21,35.7,31.5c2.9,2.8,4.4,5.6,3.5,9.8c-0.5,2.5-1.5,4.8-1.7,7.3
					c-0.3,3.2,0.8,6.4,1,9.6c0.2,3.2-0.7,6.9-3.6,8.4c-1.4,0.7-3,0.7-4.6,0.6c2.8,1.9,5.7,3.7,8.9,4.6c3.2,1,6.8,1,9.9-0.5
					c2.9-1.5,5.1-4.3,8.2-5.3c1.7-0.5,3.5-0.5,5.2-1c1.7-0.5,3.3-1.6,4.4-3c1.7-2.3,2.4-5.5,4.9-7c1.2-0.7,2.6-0.8,3.9-1.4
					c2.6-1.1,4.2-3.8,4.7-6.6c0.5-2.8,0.1-5.6-0.4-8.4c-1.3-7.4-3-14.8-5-22.1c-0.7-2.5-2.2-4.7-3.7-6.7c-1.7-2.4-3.4-4.9-5.3-7.2
					c-12.8-15.6-53.3-67.6-53.3-67.6l44.8-58.7C457.8,359.7,490.5,321.8,466,270.7z"/>
				<path class="st18" d="M413.1,418.3c-10.8,11-27.8,12.2-34.1,12c22.4,8.6,37.8-7.3,37.8-7.3L413.1,418.3z"/>
			</g>
			<path class="st3" d="M390.3,474.4l10.2,8.8c0,0,13.8-1.1,24.9-14.3c11.3-13.5,10.4-23.4,10.4-23.4l-11.8-13.3L390.3,474.4z"/>
			<path class="st4" d="M466.4,264.8c-25.9,5.7-30.7,9.1-49.2,35c-18.5,25.9-49.8,75.3-57.9,88.1c-8.1,12.8-20.3,34.8-13.2,45.9
				c7,11.1,45.5,43.5,45.5,43.5s13-0.6,25.7-13.7c13.2-13.6,12.1-27.5,12.1-27.5l-14.3-17.9c0,0,39.9-51.4,47.2-61
				C469.6,347.8,485.5,315.7,466.4,264.8z"/>
			<path class="st5" d="M415.2,418.3c-5.2-5.8-17.8-15.3-27.1-16.9c9.7-1.7,24.2,5.2,31,11.6L415.2,418.3z"/>
		</g>
	</g>
</g>
</svg>
