<?xml version="1.0" encoding="utf-8"?>
<!-- Generator: Adobe Illustrator 27.0.0, SVG Export Plug-In . SVG Version: 6.00 Build 0)  -->
<svg version="1.1" id="Layer_1" xmlns="http://www.w3.org/2000/svg" xmlns:xlink="http://www.w3.org/1999/xlink" x="0px" y="0px"
	 viewBox="0 0 1686.5 1027.6" style="enable-background:new 0 0 1686.5 1027.6;" xml:space="preserve">
<style type="text/css">
	.st0{display:none;}
	.st1{display:inline;}
	.st2{fill:#FFFFFF;}
	.st3{fill:#7437A0;}
</style>
<rect x="-1866.2" y="1.4" width="1686.5" height="1027.6"/>
<rect x="1245.4" y="1805.3" width="1866.2" height="1124.4"/>
<g class="st0">
	<path class="st1" d="M6167.3-4773.1h46.9v22.2h-46.9v56.9c0,4.6,0.5,8.5,1.6,11.5s2.6,5.5,4.5,7.2c2,1.9,4.4,3.3,7.2,4.1
		c2.8,0.8,5.8,1.2,9.2,1.2c2.4,0,4.9-0.1,7.5-0.4s5.1-0.6,7.5-1c2.3-0.3,4.5-0.6,6.5-1s3.8-0.8,5.2-1.2l3.1,20.7
		c-2.2,1.2-4.7,2.3-7.6,3.2c-2.9,0.9-6,1.7-9.3,2.3c-3.3,0.6-6.8,1.1-10.4,1.4c-3.6,0.4-7.2,0.5-10.7,0.5c-6.6,0-12.6-0.9-18-2.7
		c-5.4-1.8-10.1-4.6-13.9-8.3c-3.9-3.7-7-8.4-9.1-14.2c-2.1-5.8-3.2-12.8-3.2-21v-59.3h-29.5v-22.2h29.5v-30.6h30L6167.3-4773.1
		L6167.3-4773.1z"/>
	<path class="st1" d="M6303.4-4773.1v100.7h35.4v24.6H6236v-24.6h37.2v-76.1H6236v-24.7h67.4L6303.4-4773.1L6303.4-4773.1z
		 M6272-4811.9c0.8-2,2-3.7,3.6-5.2c1.5-1.4,3.3-2.5,5.4-3.2s4.5-1.2,7.1-1.2c4.9,0,8.9,1.3,11.9,3.9s4.6,6.1,4.8,10.3
		c0.2,4.2-0.9,7.7-3.4,10.5s-6,4.5-10.6,4.9c-2.2,0.8-4.4,1.1-6.7,0.9c-2.3-0.2-4.5-0.9-6.7-2.1c-2.2-1.2-3.8-2.8-5-5
		c-1.2-2.2-1.7-4.6-1.7-7.2C6270.7-4807.7,6271.2-4809.9,6272-4811.9z"/>
	<path class="st1" d="M6347.2-4773.1h27.1l1.8,17.6c1.7-2.4,3.5-4.6,5.5-6.5s4.1-3.7,6.3-5.3c3.7-2.6,7.8-4.6,12.2-6s9.1-2.1,14-2.1
		c6.3,0,12.1,0.9,17.4,2.8s9.9,4.8,13.7,8.8c3.8,4,6.7,9.2,8.8,15.5s3.1,14,3.1,22.9v77.6h-29.9v-77.1c0-5.1-0.6-9.3-1.7-12.7
		c-1.2-3.4-2.8-6-5-7.9c-2.2-2-4.8-3.4-7.8-4.2c-3.1-0.8-6.5-1.2-10.4-1.2c-3.3,0-6.3,0.4-9.1,1.2c-2.8,0.8-5.2,1.9-7.3,3.4
		c-1.8,1.2-3.4,2.5-4.9,4.1s-2.8,3.3-3.9,5.3v89.2h-30L6347.2-4773.1L6347.2-4773.1z"/>
	<path class="st1" d="M6465.9-4737.4c2.3-7.9,5.7-14.6,10.1-20.3c4.4-5.6,9.7-10,15.9-13.1c6.2-3.1,13.3-4.6,21.1-4.6
		c4.4,0,8.4,0.4,12.1,1.3c3.7,0.9,7,2.2,10,4c2.1,1.2,4,2.5,5.9,4.1c1.8,1.5,3.4,3.3,4.9,5.2l1.3-12.3h27.2v121.6
		c0,8.4-1.4,15.9-4.2,22.5c-2.8,6.6-6.8,12.1-11.9,16.6c-5.1,4.6-11.2,8-18.4,10.4c-7.1,2.4-15,3.5-23.6,3.5c-3.7,0-7.7-0.4-12-1.2
		c-4.3-0.8-8.6-2-12.8-3.6c-4.2-1.6-8.3-3.7-12.1-6.2c-3.8-2.6-7.1-5.6-9.9-9.3l13.8-18.2c2.2,2.6,4.6,4.8,7.1,6.7s5,3.4,7.6,4.7
		c2.6,1.2,5.3,2,8.1,2.6c2.8,0.6,5.6,0.9,8.6,0.9c4.8,0,9.1-0.7,12.8-2c3.7-1.3,6.9-3.3,9.4-6c2.4-2.4,4.2-5.4,5.5-8.9
		c1.3-3.6,1.9-7.6,1.9-12v-8c-1.5,1.8-3.2,3.4-4.9,4.8c-1.7,1.4-3.6,2.7-5.5,3.8c-2.9,1.5-6.2,2.8-9.7,3.6
		c-3.5,0.8-7.4,1.3-11.5,1.3c-7.7,0-14.7-1.6-20.9-4.8c-6.2-3.2-11.5-7.6-15.9-13.3c-4.4-5.7-7.8-12.4-10.1-20.2
		c-2.3-7.8-3.5-16.1-3.5-25.2v-2.4C6462.4-4720.9,6463.6-4729.6,6465.9-4737.4z M6494-4693.8c1.1,4.7,2.8,8.8,5.1,12.4
		c2.2,3.6,5.1,6.3,8.6,8.3s7.7,3,12.6,3c3,0,5.7-0.3,8.1-0.9c2.4-0.6,4.6-1.4,6.6-2.6s3.8-2.7,5.3-4.3c1.5-1.7,2.9-3.5,4.1-5.6v-54
		c-1.2-2.3-2.7-4.3-4.3-6.1c-1.7-1.7-3.6-3.1-5.7-4.2c-1.9-1-3.9-1.8-6.2-2.3c-2.3-0.5-4.8-0.8-7.5-0.8c-4.9,0-9.1,1-12.6,3.1
		s-6.4,4.9-8.7,8.4c-2.3,3.6-4,7.8-5.1,12.6c-1.1,4.8-1.7,9.9-1.7,15.4v2.4C6492.4-4703.6,6493-4698.5,6494-4693.8z"/>
</g>
<path class="st0" d="M7778-4773.1h27.1l1.9,17.6c1.7-2.4,3.5-4.6,5.5-6.5s4.1-3.7,6.3-5.3c3.7-2.6,7.8-4.6,12.2-6s9.1-2.1,14-2.1
	c6.3,0,12.1,0.9,17.4,2.8s9.9,4.8,13.7,8.8c3.8,4,6.7,9.2,8.8,15.5c2.1,6.3,3.1,14,3.1,22.9v77.6h-29.9v-77.1
	c0-5.1-0.6-9.3-1.7-12.7c-1.2-3.4-2.8-6-5-7.9c-2.2-2-4.8-3.4-7.8-4.2c-3-0.8-6.5-1.2-10.4-1.2c-3.3,0-6.4,0.4-9.1,1.2
	c-2.7,0.8-5.2,1.9-7.4,3.4c-1.8,1.2-3.4,2.5-4.9,4.1s-2.8,3.3-3.9,5.3v89.2h-30L7778-4773.1L7778-4773.1z"/>
<path class="st0" d="M7896.7-4737.4c2.3-7.9,5.7-14.6,10.1-20.3c4.4-5.6,9.7-10,15.9-13.1c6.2-3.1,13.3-4.6,21.1-4.6
	c4.4,0,8.4,0.4,12.1,1.3s7,2.2,10,4c2.1,1.2,4,2.5,5.9,4.1c1.8,1.5,3.4,3.3,4.9,5.2l1.3-12.3h27.2v121.6c0,8.4-1.4,15.9-4.2,22.5
	c-2.8,6.6-6.8,12.1-11.9,16.6c-5.1,4.6-11.2,8-18.4,10.4c-7.1,2.4-15,3.5-23.6,3.5c-3.7,0-7.7-0.4-12-1.2c-4.3-0.8-8.6-2-12.8-3.6
	c-4.2-1.6-8.3-3.7-12.1-6.2c-3.8-2.6-7.1-5.6-9.9-9.3l13.8-18.2c2.2,2.6,4.6,4.8,7.1,6.7s5,3.4,7.6,4.7c2.6,1.2,5.3,2,8.1,2.6
	c2.8,0.6,5.6,0.9,8.6,0.9c4.8,0,9.1-0.7,12.8-2c3.7-1.3,6.9-3.3,9.4-6c2.4-2.4,4.2-5.4,5.5-8.9c1.3-3.6,1.9-7.6,1.9-12v-8
	c-1.5,1.8-3.2,3.4-4.9,4.8c-1.7,1.4-3.6,2.7-5.5,3.8c-2.9,1.5-6.2,2.8-9.7,3.6c-3.5,0.8-7.4,1.3-11.5,1.3c-7.7,0-14.7-1.6-20.9-4.8
	c-6.2-3.2-11.5-7.6-15.9-13.3c-4.4-5.7-7.8-12.4-10.1-20.2c-2.3-7.8-3.5-16.1-3.5-25.2v-2.4
	C7893.2-4720.9,7894.4-4729.6,7896.7-4737.4z M7924.8-4693.8c1.1,4.7,2.8,8.8,5.1,12.4c2.2,3.6,5.1,6.3,8.6,8.3s7.7,3,12.6,3
	c3,0,5.7-0.3,8.1-0.9s4.6-1.4,6.6-2.6s3.8-2.7,5.3-4.3c1.5-1.7,2.9-3.5,4.1-5.6v-54c-1.2-2.3-2.7-4.3-4.3-6.1
	c-1.7-1.7-3.6-3.1-5.7-4.2c-1.9-1-3.9-1.8-6.2-2.3c-2.3-0.5-4.8-0.8-7.5-0.8c-4.9,0-9.1,1-12.6,3.1s-6.4,4.9-8.7,8.4
	c-2.3,3.6-4,7.8-5.1,12.6c-1.1,4.8-1.7,9.9-1.7,15.4v2.4C7923.2-4703.6,7923.7-4698.5,7924.8-4693.8z"/>
<g>
	<polygon class="st2" points="1573.5,2795.2 1573.5,2047.3 1430.3,2047.3 1430.3,1890.8 1880.6,1890.8 1880.6,2047.3 1737.3,2047.3 
		1737.3,2795.2 	"/>
	<rect x="1904.3" y="1890.8" class="st2" width="163.8" height="904.4"/>
	<path class="st2" d="M2434.6,2039.3v-152.8h128l9.4,37.6c-14.1,7.5-27.5,16.8-39.7,27.6c-20.3,17.8-36.8,40.6-49.2,67.8
		c-3.7,8.1-6.8,16.6-9.4,25.4L2434.6,2039.3z"/>
	<path class="st2" d="M2426.7,2801c-12.7,0-23.9-8.1-27.9-20.2l-118.1-356l4.1,373.2l-164.3,0.4l-8.5-907.1l130.9-3
		c0.2,0,0.4,0,0.7,0c12.7,0,24,8.1,28,20.2L2565,2801H2426.7z"/>
	<path class="st2" d="M2676.7,2791.6c-26.9,0-53.9-4.8-80.4-14.3c-21.3-7.7-41.1-18.4-58.9-31.8l-5-3.8l-80.3-243.5v-384.5
		c0-37,6.6-70.4,19.7-99.2c13.1-28.8,30.7-53,52.3-72c21.3-18.7,45.6-33,72.2-42.7c26.4-9.5,53.5-14.3,80.4-14.3
		c26.9,0,53.9,4.8,80.4,14.3c26.6,9.6,50.9,24,72.2,42.7c21.6,19,39.2,43.2,52.3,72c13.1,28.8,19.7,62.2,19.7,99.2v63.1h-162v-63.1
		c0-23.6-5.7-39.9-17.5-50c-12.7-10.9-27.5-16.2-45-16.2s-32.3,5.3-45,16.2c-11.8,10.1-17.5,26.4-17.5,50v449.8
		c0,23.6,5.7,39.9,17.5,50c12.7,10.9,27.5,16.1,45,16.1s32.3-5.3,45-16.1c11.8-10.1,17.5-26.4,17.5-50v-140.3h-96.9v-147.7h259v288
		c0,37.8-6.7,71.5-19.8,99.9c-13.1,28.3-30.6,52.3-52.2,71.3c-21.4,18.8-45.7,33.1-72.2,42.7
		C2730.6,2786.8,2703.6,2791.6,2676.7,2791.6z"/>
	<path d="M1593.5,2027.3h-143.3v-116.5h410.3v116.5h-143.3v747.8h-123.8V2027.3z"/>
	<path d="M1924.3,1910.8h123.8v864.4h-123.8V1910.8z"/>
	<path class="st3" d="M2454.6,1906.5v132.8c2.8-9.8,6.3-19.1,10.4-28.1c13.5-29.8,31.8-54.8,54.2-74.5c13.4-11.8,28-21.9,43.5-30.2
		H2454.6z"/>
	<path class="st3" d="M2132.3,1910.8l111.2-2.5c4.2-0.1,7.9,2.5,9.2,6.5l284.8,866.2h-110.7c-4.1,0-7.7-2.6-9-6.5l-156.1-470.6h-2.3
		l5.3,474.1l-124.3,0.3L2132.3,1910.8z"/>
	<path d="M2881.3,2156.6v-43.1c0-34.3-6-64.6-17.9-90.9c-12-26.3-27.7-48-47.3-65.2c-19.6-17.2-41.5-30.1-65.8-38.9
		c-24.3-8.8-48.9-13.2-73.6-13.2c-24.7,0-49.3,4.4-73.6,13.2c-24.3,8.8-46.3,21.7-65.8,38.9c-19.6,17.2-35.3,38.9-47.3,65.2
		c-12,26.3-17.9,56.6-17.9,90.9v381.3l77.3,234.6c16.4,12.3,34.3,22,53.7,29c24.3,8.8,48.8,13.2,73.6,13.2
		c24.7,0,49.3-4.4,73.6-13.2c24.3-8.8,46.3-21.7,65.8-38.9c19.5-17.2,35.3-38.7,47.3-64.6c12-25.9,17.9-56.4,17.9-91.5v-268h-219
		v107.7h96.9v160.3c0,29.5-8.2,51.2-24.5,65.2c-16.4,14-35.7,20.9-58,20.9c-22.3,0-41.7-7-58-20.9s-24.5-35.7-24.5-65.2v-449.8
		c0-29.5,8.2-51.2,24.5-65.2c16.4-14,35.7-21,58-21c22.3,0,41.7,7,58,21c16.3,14,24.5,35.7,24.5,65.2v43.1H2881.3z"/>
</g>
<g>
	<g>
		<polygon points="288.2,935.4 288.2,223.7 151.8,223.7 151.8,91.8 563.3,91.8 563.3,223.7 427,223.7 427,935.4 		"/>
		<path class="st2" d="M552.8,102.3v110.9H416.5v711.7H298.7V213.2H162.3V102.3H552.8 M573.8,81.3h-21H162.3h-21v21v110.9v21h21
			h115.3v690.7v21h21h117.8h21v-21V234.2h115.3h21v-21V102.3V81.3L573.8,81.3z"/>
	</g>
	<g>
		<rect x="603" y="91.8" width="138.8" height="843.6"/>
		<path class="st2" d="M731.4,102.3v822.6H613.5V102.3H731.4 M752.4,81.3h-21H613.5h-21v21v822.6v21h21h117.8h21v-21V102.3V81.3
			L752.4,81.3z"/>
	</g>
	<g>
		<path class="st3" d="M1107.6,87.7h155.2l-36.9,19.8c-14,7.5-27.3,16.7-39.4,27.4c-20.2,17.7-36.7,40.4-48.9,67.4
			c-3.7,8.1-6.8,16.6-9.3,25.3l-20.6,70.6V87.7z"/>
		<path class="st2" d="M1221,98.2c-14.8,7.9-28.6,17.5-41.4,28.7c-21.3,18.7-38.7,42.6-51.6,70.9c-3.9,8.5-7.2,17.4-9.9,26.7V98.2
			H1221 M1304.8,77.2H1221h-102.8h-21v21v126.4v147.2l41.2-141.3c2.4-8.2,5.4-16.3,8.8-23.9c11.6-25.6,27.2-47.1,46.3-63.8
			c11.6-10.1,24.2-18.9,37.5-26L1304.8,77.2L1304.8,77.2z"/>
	</g>
	<g>
		<path class="st3" d="M1091.6,940.9c-8.4,0-15.8-5.4-18.5-13.4L943.5,536.8l4.5,401.3l-139.3,0.4L800.8,92l116.1-2.6l0.4,0
			c8.4,0,15.9,5.4,18.5,13.4l275.6,838.1H1091.6z"/>
		<path class="st2" d="M917.4,99.9c3.9,0,7.3,2.5,8.5,6.2l271,824.3h-105.3c-3.9,0-7.3-2.5-8.5-6.2L934.6,476.4h-2.2l5,451.2
			l-118.3,0.3l-7.7-825.6l105.8-2.4C917.2,99.9,917.3,99.9,917.4,99.9 M917.4,78.9c-0.2,0-0.5,0-0.7,0l-105.8,2.4l-20.7,0.5
			l0.2,20.7l7.7,825.6l0.2,20.9l20.9-0.1l118.3-0.3l21.2-0.1l-0.2-21.2L954.8,604l108.4,326.8c4.1,12.3,15.5,20.5,28.5,20.5H1197h29
			l-9.1-27.6l-271-824.3C941.8,87.2,930.4,78.9,917.4,78.9L917.4,78.9z"/>
	</g>
	<g>
		<path d="M1329.5,932c-24.6,0-49.4-4.4-73.6-13.1c-19.4-7-37.6-16.8-53.8-29.1l-2.6-2l-75.2-228V295.3c0-34,6.1-64.6,18-90.9
			c12-26.3,28-48.4,47.6-65.6c19.4-17.1,41.6-30.2,66-39c24.2-8.7,49-13.1,73.6-13.1s49.4,4.4,73.6,13.1c24.3,8.8,46.5,21.9,66,39
			c19.7,17.3,35.7,39.3,47.6,65.6c12,26.3,18,56.9,18,90.9v51.5h-137.1v-51.5c0-24.7-6.6-42.9-19.7-54.1
			c-13.7-11.7-29.6-17.4-48.4-17.4c-18.8,0-34.7,5.7-48.4,17.4c-13.2,11.3-19.7,29-19.7,54.1v428.1c0,25.1,6.4,42.8,19.7,54.1
			c13.7,11.7,29.6,17.4,48.4,17.4c18.8,0,34.7-5.7,48.4-17.4c13-11.1,19.7-29.3,19.7-54.1V581.3h-92.2V457.9h229.4v265.5
			c0,34.8-6.1,65.6-18,91.5c-11.9,25.9-27.9,47.7-47.6,65c-19.5,17.1-41.7,30.2-66,39C1378.9,927.6,1354.1,932,1329.5,932z"/>
		<path class="st2" d="M1329.5,97.2c23.5,0,46.9,4.2,70,12.5c23.2,8.4,44,20.7,62.6,37c18.6,16.3,33.6,37,45,62.1
			c11.4,25.1,17.1,53.9,17.1,86.5v41h-116.1v-41c0-28.1-7.8-48.8-23.3-62.1c-15.6-13.3-34-19.9-55.2-19.9
			c-21.3,0-39.7,6.7-55.2,19.9c-15.6,13.3-23.3,34-23.3,62.1v428.1c0,28.1,7.8,48.8,23.3,62.1c15.6,13.3,34,19.9,55.2,19.9
			c21.2,0,39.7-6.6,55.2-19.9c15.5-13.3,23.3-34,23.3-62.1V570.8h-92.2V468.4h208.4v255c0,33.4-5.7,62.4-17.1,87.1
			c-11.4,24.7-26.4,45.2-45,61.5c-18.6,16.3-39.5,28.7-62.6,37c-23.2,8.3-46.5,12.5-70,12.5c-23.5,0-46.9-4.2-70-12.5
			c-18.5-6.7-35.5-15.8-51.1-27.6l-73.6-223.2V295.3c0-32.6,5.7-61.5,17.1-86.5c11.4-25.1,26.4-45.7,45-62.1
			c18.6-16.3,39.5-28.6,62.6-37C1282.6,101.3,1306,97.2,1329.5,97.2 M1329.5,76.2c-25.8,0-51.8,4.6-77.1,13.8
			c-25.6,9.3-48.9,23.1-69.4,41c-20.8,18.2-37.7,41.5-50.2,69.1c-12.6,27.7-19,59.7-19,95.2v362.9v3.4l1.1,3.2l73.6,223.2l2.1,6.2
			l5.2,4c17.1,12.9,36.2,23.2,56.6,30.6c25.4,9.1,51.3,13.8,77.1,13.8c25.8,0,51.8-4.6,77.1-13.8c25.5-9.2,48.9-23,69.4-41
			c20.7-18.2,37.6-41.3,50.2-68.5c12.6-27.3,19-59.6,19-95.9v-255v-21h-21h-208.4h-21v21v102.5v21h21h71.2v131.6
			c0,21.8-5.2,36.9-16,46.1c-11.7,10-25.3,14.9-41.6,14.9c-16.2,0-29.9-4.9-41.6-14.9c-10.7-9.2-16-24.2-16-46.1V295.3
			c0-21.8,5.2-36.9,16-46.1c11.8-10,25.4-14.9,41.6-14.9c16.2,0,29.8,4.9,41.6,14.9c10.7,9.2,16,24.3,16,46.1v41v21h21h116.1h21v-21
			v-41c0-35.5-6.4-67.5-19-95.2c-12.6-27.6-29.5-50.9-50.2-69.1c-20.5-18-43.8-31.7-69.4-41C1381.3,80.8,1355.3,76.2,1329.5,76.2
			L1329.5,76.2z"/>
	</g>
</g>
<g>
	<path d="M3334.3,149.1h-165.4V14.5h473.8v134.6h-165.4v863.6h-143V149.1z"/>
	<path d="M3716.4,14.5h143v998.2h-143V14.5z"/>
	<path class="st3" d="M4328.6,9.6v153.3c3.3-11.3,7.3-22.1,12-32.4c15.6-34.4,36.7-63.3,62.6-86c15.5-13.6,32.3-25.3,50.2-34.9
		H4328.6z"/>
	<path class="st3" d="M3956.5,14.5l128.4-2.9c4.8-0.1,9.1,2.9,10.6,7.5l328.9,1000.3h-127.8c-4.7,0-8.9-3-10.3-7.5l-180.2-543.4
		h-2.7l6.1,547.5l-143.5,0.4L3956.5,14.5z"/>
	<path d="M4821.4,298.4v-49.7c0-39.6-6.9-74.6-20.7-105c-13.8-30.4-32-55.5-54.6-75.3c-22.6-19.8-47.9-34.8-76-44.9
		c-28.1-10.1-56.4-15.2-85-15.2c-28.6,0-56.9,5.1-85,15.2c-28.1,10.2-53.4,25.1-76,44.9c-22.6,19.8-40.8,44.9-54.6,75.3
		c-13.8,30.4-20.7,65.4-20.7,105V689l89.3,270.9c18.9,14.3,39.6,25.4,62,33.5c28.1,10.1,56.4,15.2,85,15.2c28.5,0,56.9-5.1,85-15.2
		c28.1-10.1,53.4-25.1,76-44.9c22.6-19.8,40.8-44.7,54.6-74.6c13.8-29.9,20.7-65.2,20.7-105.7V458.7h-252.8V583h111.9v185.1
		c0,34.1-9.5,59.2-28.3,75.3c-18.9,16.1-41.2,24.2-67,24.2c-25.8,0-48.1-8.1-67-24.2c-18.9-16.1-28.3-41.2-28.3-75.3V248.7
		c0-34.1,9.4-59.2,28.3-75.3s41.2-24.2,67-24.2c25.8,0,48.1,8.1,67,24.2c18.9,16.1,28.3,41.2,28.3,75.3v49.7H4821.4z"/>
</g>
<g>
	<path d="M7422.8,523.5h-98.6v-80.2h282.4v80.2H7508v514.6h-85.2V523.5z"/>
	<path d="M7650.4,443.3h85.2v594.8h-85.2V443.3z"/>
	<path d="M8015.3,440.3v91.4c2-6.7,4.3-13.2,7.1-19.3c9.3-20.5,21.9-37.7,37.3-51.3c9.2-8.1,19.2-15.1,29.9-20.8H8015.3z"/>
	<path d="M7793.5,443.3l76.5-1.7c2.9-0.1,5.4,1.7,6.3,4.5l196,596h-76.2c-2.8,0-5.3-1.8-6.2-4.5l-107.4-323.8h-1.6l3.6,326.2
		l-85.5,0.2L7793.5,443.3z"/>
	<path d="M8308.9,612.5v-29.6c0-23.6-4.1-44.5-12.3-62.6c-8.2-18.1-19.1-33.1-32.5-44.9c-13.5-11.8-28.5-20.7-45.3-26.8
		c-16.7-6-33.6-9-50.6-9c-17,0-33.9,3-50.6,9c-16.7,6.1-31.8,15-45.3,26.8c-13.5,11.8-24.3,26.8-32.5,44.9
		c-8.2,18.1-12.3,39-12.3,62.6v262.4l53.2,161.4c11.3,8.5,23.6,15.1,36.9,20c16.7,6,33.6,9,50.6,9c17,0,33.9-3,50.6-9
		c16.7-6,31.8-14.9,45.3-26.8c13.4-11.8,24.3-26.6,32.5-44.5c8.2-17.8,12.3-38.8,12.3-63V708h-150.7V782h66.7v110.3
		c0,20.3-5.6,35.3-16.9,44.9c-11.3,9.6-24.6,14.4-39.9,14.4c-15.4,0-28.7-4.8-39.9-14.4c-11.3-9.6-16.9-24.6-16.9-44.9V582.8
		c0-20.3,5.6-35.3,16.9-44.9s24.6-14.4,39.9-14.4c15.4,0,28.7,4.8,39.9,14.4c11.2,9.6,16.9,24.6,16.9,44.9v29.6H8308.9z"/>
</g>
<g>
	<path d="M6240.8,523.5h-98.6v-80.2h282.4v80.2H6326v514.6h-85.2V523.5z"/>
	<path d="M6468.5,443.3h85.2v594.8h-85.2V443.3z"/>
	<path class="st3" d="M6833.3,440.3v91.4c2-6.7,4.3-13.2,7.1-19.3c9.3-20.5,21.9-37.7,37.3-51.3c9.2-8.1,19.2-15.1,29.9-20.8H6833.3
		z"/>
	<path class="st3" d="M6611.6,443.3l76.5-1.7c2.9-0.1,5.4,1.7,6.3,4.5l196,596h-76.2c-2.8,0-5.3-1.8-6.2-4.5l-107.4-323.8h-1.6
		l3.6,326.2l-85.5,0.2L6611.6,443.3z"/>
	<path d="M7127,612.5v-29.6c0-23.6-4.1-44.5-12.3-62.6c-8.2-18.1-19.1-33.1-32.5-44.9c-13.5-11.8-28.5-20.7-45.3-26.8
		c-16.7-6-33.6-9-50.6-9c-17,0-33.9,3-50.6,9c-16.7,6.1-31.8,15-45.3,26.8c-13.5,11.8-24.3,26.8-32.5,44.9
		c-8.2,18.1-12.3,39-12.3,62.6v262.4l53.2,161.4c11.3,8.5,23.6,15.1,36.9,20c16.7,6,33.6,9,50.6,9c17,0,33.9-3,50.6-9
		s31.8-14.9,45.3-26.8c13.4-11.8,24.3-26.6,32.5-44.5c8.2-17.8,12.3-38.8,12.3-63V708h-150.7V782h66.7v110.3
		c0,20.3-5.6,35.3-16.9,44.9c-11.3,9.6-24.6,14.4-39.9,14.4c-15.4,0-28.7-4.8-39.9-14.4c-11.3-9.6-16.9-24.6-16.9-44.9V582.8
		c0-20.3,5.6-35.3,16.9-44.9s24.6-14.4,39.9-14.4c15.4,0,28.7,4.8,39.9,14.4c11.2,9.6,16.9,24.6,16.9,44.9v29.6H7127z"/>
</g>
<g>
	<path class="st3" d="M5409.5,1652.6v149.2c3.2-11,7.1-21.5,11.7-31.5c15.2-33.5,35.7-61.6,60.9-83.7c15.1-13.2,31.4-24.6,48.9-33.9
		H5409.5z"/>
	<path class="st3" d="M5047.3,1657.4l124.9-2.8c4.7-0.1,8.9,2.9,10.3,7.3l320,973.4h-124.4c-4.6,0-8.6-2.9-10.1-7.3l-175.4-528.8
		h-2.6l5.9,532.8l-139.7,0.4L5047.3,1657.4z"/>
</g>
<g>
	<path d="M6755,1652.6v149.2c3.2-11,7.1-21.5,11.7-31.5c15.2-33.5,35.7-61.6,60.9-83.7c15.1-13.2,31.4-24.6,48.9-33.9H6755z"/>
	<path d="M6392.8,1657.4l124.9-2.8c4.7-0.1,8.9,2.9,10.3,7.3l320,973.4h-124.4c-4.6,0-8.6-2.9-10.1-7.3l-175.4-528.8h-2.6l5.9,532.8
		l-139.7,0.4L6392.8,1657.4z"/>
</g>
<polygon class="st2" points="2441.8,2031.1 2434.6,2039.3 2434.6,2458.4 2459.2,2483.1 2459.2,2148.6 2466.1,2041.4 2458.2,2038.7 
	2456,2039.3 2454.6,2040.1 2450.4,2039.3 "/>
</svg>
